<?xml version="1.0" standalone="no"?>
<!DOCTYPE svg PUBLIC "-//W3C//DTD SVG 1.1//EN" "http://www.w3.org/Graphics/SVG/1.1/DTD/svg11.dtd" >
<svg xmlns="http://www.w3.org/2000/svg" xmlns:xlink="http://www.w3.org/1999/xlink" version="1.1">
<metadata>
Created by FontForge 20161013 at Mon May  1 21:12:08 2017
 By ,,,
Straight l
</metadata>
<defs>
<font id="SourceSansPro-Regular" horiz-adv-x="1017" >
  <font-face 
    font-family="Source Sans Pro"
    font-weight="400"
    font-stretch="normal"
    units-per-em="2048"
    panose-1="2 11 5 3 3 4 3 2 2 4"
    ascent="1536"
    descent="-512"
    x-height="995"
    cap-height="1343"
    bbox="-82 -512 1809 1792"
    underline-thickness="102"
    underline-position="-919"
    unicode-range="U+000D-FB02"
  />
<missing-glyph horiz-adv-x="748" 
d="M68 0v1365h544v-1365h-544zM136 68h408v1229h-408v-1229z" />
    <glyph glyph-name=".notdef" horiz-adv-x="748" 
d="M68 0v1365h544v-1365h-544zM136 68h408v1229h-408v-1229z" />
    <glyph glyph-name="glyph1" horiz-adv-x="0" 
 />
    <glyph glyph-name="glyph2" horiz-adv-x="682" 
 />
    <glyph glyph-name="glyph3" horiz-adv-x="0" 
 />
    <glyph glyph-name="glyph3" horiz-adv-x="0" 
 />
    <glyph glyph-name="uni000D" unicode="&#xd;" horiz-adv-x="413" 
 />
    <glyph glyph-name="space" unicode=" " horiz-adv-x="413" 
 />
    <glyph glyph-name="exclam" unicode="!" horiz-adv-x="591" 
d="M174 102q0 59 36 95t87 36q49 0 85 -35.5t36 -95.5q0 -55 -36 -91t-85 -36q-51 0 -87 36t-36 91zM211 1372h170l-4 -192l-23 -774h-116l-23 774z" />
    <glyph glyph-name="quotedbl" unicode="&#x22;" horiz-adv-x="870" 
d="M164 1413h180l-6 -188l-33 -342h-102l-33 342zM524 1413h180l-6 -188l-33 -342h-102l-33 342z" />
    <glyph glyph-name="numbersign" unicode="#" 
d="M72 418v117h178l37 303h-174v118h188l47 375h109l-47 -375h272l49 375h109l-49 -375h165v-118h-178l-37 -303h174v-117h-188l-51 -418h-109l49 418h-270l-51 -418h-111l52 418h-164zM360 535h271l37 303h-271z" />
    <glyph glyph-name="dollar" unicode="$" 
d="M106 135l78 117q66 -57 145 -97t173 -40q115 0 171 57t56 154q0 82 -42 136t-105.5 94t-138 75t-138 80t-105.5 109.5t-42 164.5q0 137 80.5 228.5t216.5 113.5v205h123v-203q98 -10 166.5 -53t123.5 -102l-90 -101q-57 55 -111.5 86t-138.5 31q-94 0 -149 -53.5
t-55 -143.5q0 -74 42 -121t105.5 -82.5t138 -69.5t138 -82t105.5 -118.5t42 -181.5q0 -147 -85 -241.5t-232 -114.5v-207h-123v202q-98 10 -190.5 54.5t-158.5 103.5z" />
    <glyph glyph-name="percent" unicode="%" horiz-adv-x="1687" 
d="M72 946q0 203 83 312.5t222 109.5q137 0 221 -109.5t84 -312.5q0 -205 -84 -315.5t-221 -110.5q-139 0 -222 111t-83 315zM199 946q0 -160 49 -240.5t129 -80.5q78 0 127 81t49 240q0 160 -49 239t-127 79q-80 0 -129 -79t-49 -239zM414 -25l741 1393h115l-741 -1393
h-115zM1008 401q0 203 83 312.5t222 109.5q137 0 221 -109.5t84 -312.5q0 -205 -84 -315.5t-221 -110.5q-139 0 -222 111t-83 315zM1135 401q0 -160 49 -240.5t129 -80.5q78 0 127 81t49 240q0 160 -49 239t-127 79q-80 0 -129 -79t-49 -239z" />
    <glyph glyph-name="ampersand" unicode="&#x26;" horiz-adv-x="1247" 
d="M66 348q0 68 21.5 123t58 102.5t85 87t99.5 74.5q-41 84 -64.5 163t-23.5 153q0 68 22.5 125t63.5 100t98 67.5t127 24.5q125 0 194.5 -73.5t69.5 -192.5q0 -66 -26.5 -121t-69.5 -103.5t-97.5 -90.5t-109.5 -82q66 -104 155 -200.5t185 -176.5q61 84 109.5 182t78.5 215
h158q-41 -133 -98.5 -254t-136.5 -227q70 -47 133 -80t119 -49l-46 -140q-72 20 -149.5 58.5t-159.5 95.5q-78 -70 -173 -112t-214 -42q-92 0 -167 28t-129 77t-83.5 117.5t-29.5 150.5zM229 358q0 -55 20.5 -101t56.5 -79t84 -50t104 -17q70 0 133 28.5t123 79.5
q-98 86 -189.5 188.5t-163.5 210.5q-72 -57 -120 -119.5t-48 -140.5zM387 1053q0 -55 17.5 -114.5t46.5 -121.5q45 31 87 62.5t73.5 65.5t50 72t18.5 83q0 59 -29.5 103t-97.5 44q-76 0 -121 -55t-45 -139z" />
    <glyph glyph-name="quotesingle" unicode="'" horiz-adv-x="509" 
d="M164 1413h180l-6 -188l-33 -342h-102l-33 342z" />
    <glyph glyph-name="parenleft" unicode="(" horiz-adv-x="620" 
d="M168 569q0 270 71.5 496.5t198.5 433.5l105 -49q-119 -197 -177.5 -421t-58.5 -460t58.5 -460t177.5 -420l-105 -49q-127 205 -198.5 432t-71.5 497z" />
    <glyph glyph-name="parenright" unicode=")" horiz-adv-x="620" 
d="M78 -311q119 197 177 421t58 459q0 236 -58 460t-177 421l104 49q127 -207 199 -433t72 -497q0 -270 -72 -497.5t-199 -431.5z" />
    <glyph glyph-name="asterisk" unicode="*" horiz-adv-x="856" 
d="M119 1194l31 94l208 -51l19 221h100l19 -219l211 49l30 -94l-198 -82l114 -192l-80 -60l-145 176l-145 -176l-82 60l116 192z" />
    <glyph glyph-name="plus" unicode="+" 
d="M70 612v127h372v400h133v-400h373v-127h-373v-399h-133v399h-372z" />
    <glyph glyph-name="comma" unicode="," horiz-adv-x="509" 
d="M96 -250q86 39 135.5 102.5t49.5 147.5q-6 -2 -21 -2q-49 0 -85 29.5t-36 87.5q0 55 37 86.5t88 31.5q66 0 104 -53t38 -145q0 -133 -72 -231.5t-197 -151.5z" />
    <glyph glyph-name="hyphen" unicode="-" horiz-adv-x="636" 
d="M84 449v129h471v-129h-471z" />
    <glyph glyph-name="period" unicode="." horiz-adv-x="509" 
d="M133 102q0 59 36 95t87 36q49 0 85 -35.5t36 -95.5q0 -55 -36 -91t-85 -36q-51 0 -87 36t-36 91z" />
    <glyph glyph-name="slash" unicode="/" horiz-adv-x="716" 
d="M20 -328l547 1782h123l-547 -1782h-123z" />
    <glyph glyph-name="zero" unicode="0" 
d="M90 657q0 330 110.5 502t309.5 172q197 0 307.5 -172t110.5 -502t-110.5 -506t-307.5 -176q-199 0 -309.5 176.5t-110.5 505.5zM254 657q0 -287 70.5 -416.5t185.5 -129.5q57 0 103 31.5t80 98t52.5 170t18.5 246.5t-18.5 246t-52.5 167.5t-80 95t-103 30.5t-104.5 -30.5
t-81 -95t-52 -167t-18.5 -246.5z" />
    <glyph glyph-name="one" unicode="1" 
d="M162 0v139h299v963h-238v108q90 16 156.5 40t120.5 57h129v-1168h270v-139h-737z" />
    <glyph glyph-name="two" unicode="2" 
d="M74 1133q82 90 174 144t221 54q182 0 286.5 -105.5t104.5 -279.5q0 -92 -40 -185t-110.5 -192.5t-168 -207t-213.5 -228.5q53 4 110.5 8t108.5 4h379v-145h-844v100q147 147 262 266t192.5 220.5t118.5 186.5t41 165q0 113 -61.5 184.5t-185.5 71.5q-82 0 -152 -46
t-127 -112z" />
    <glyph glyph-name="three" unicode="3" 
d="M53 160l86 110q59 -61 138 -108t196 -47q119 0 194.5 64.5t75.5 174.5q0 57 -21.5 105.5t-70.5 83.5t-129 53t-196 18v129q104 0 174.5 18.5t114.5 51.5t62.5 78t18.5 96q0 96 -60.5 151.5t-164.5 55.5q-82 0 -150.5 -37t-127.5 -96l-91 106q76 72 167 118t208 46
q86 0 158 -22.5t124 -64.5t80.5 -103.5t28.5 -141.5q0 -119 -65.5 -194.5t-171.5 -116.5v-8q59 -14 110.5 -42t90 -70t60 -97t21.5 -123q0 -86 -33.5 -155.5t-92 -117.5t-136.5 -74t-168 -26q-78 0 -142.5 15.5t-117.5 41t-95 58.5t-75 70z" />
    <glyph glyph-name="four" unicode="4" 
d="M35 360v111l559 836h188v-811h179v-136h-179v-360h-159v360h-588zM213 496h410v378q0 53 3 126t7 126h-8q-25 -47 -51.5 -92t-55.5 -92z" />
    <glyph glyph-name="five" unicode="5" 
d="M51 154l82 110q57 -59 136 -104t194 -45q59 0 111.5 21.5t91.5 60.5t61.5 94t22.5 123q0 135 -76 210.5t-203 75.5q-68 0 -116 -20.5t-107 -58.5l-90 57l43 629h653v-146h-506l-35 -387q47 25 94.5 39t106.5 14q84 0 157.5 -24.5t129 -74.5t87.5 -127t32 -183t-37 -188.5
t-98.5 -138.5t-140.5 -86t-165 -30q-78 0 -142.5 15.5t-116.5 40t-94 56.5t-75 67z" />
    <glyph glyph-name="six" unicode="6" 
d="M98 604q0 197 41 335t110.5 225t159 127t187.5 40q106 0 183 -40t132 -99l-94 -105q-41 47 -97 75t-118 28q-68 0 -129 -28.5t-108.5 -94.5t-76 -171t-30.5 -261q61 76 143 120t162 44q170 0 271.5 -100.5t101.5 -303.5q0 -94 -31 -171t-84 -132t-122.5 -86t-149.5 -31
q-96 0 -178 39t-142.5 118t-95.5 196.5t-35 275.5zM262 500q16 -193 89 -292t198 -99q49 0 90 20.5t71.5 58t48 90t17.5 117.5q0 129 -59.5 203t-181.5 74q-61 0 -134 -40t-139 -132z" />
    <glyph glyph-name="seven" unicode="7" 
d="M90 1161v146h842v-105q-117 -147 -189.5 -282.5t-115.5 -275.5t-62.5 -297t-27.5 -347h-175q8 184 33 338t69 292t112.5 267t164.5 264h-651z" />
    <glyph glyph-name="eight" unicode="8" 
d="M84 334q0 63 21.5 117.5t55.5 98.5t78 78t91 58v8q-72 51 -127.5 124t-55.5 177q0 76 29 137.5t78 105.5t116.5 68.5t147.5 24.5q86 0 153.5 -25.5t116 -71.5t74 -110.5t25.5 -140.5q0 -51 -17.5 -98t-43 -88t-57.5 -74t-62 -55v-9q43 -25 83.5 -56.5t72.5 -71t51.5 -91
t19.5 -116.5q0 -74 -31 -137.5t-86 -110.5t-133 -74t-172 -27q-92 0 -171 27t-135 75t-89 113.5t-33 143.5zM236 350q0 -55 21.5 -100t59 -79t89 -52.5t110.5 -18.5q115 0 185.5 63.5t70.5 166.5q0 63 -28.5 108t-78 79t-114 61.5t-133.5 56.5q-78 -53 -130 -124t-52 -161z
M303 995q0 -59 24.5 -101t66.5 -75t96.5 -58t113.5 -48q66 59 101.5 124.5t35.5 137.5q0 98 -59 164.5t-168 66.5q-92 0 -151.5 -57t-59.5 -154z" />
    <glyph glyph-name="nine" unicode="9" 
d="M82 911q0 94 30.5 171t83 132.5t123 86t148.5 30.5q96 0 179 -39t143.5 -117.5t94.5 -196.5t34 -276q0 -197 -41 -335t-111 -225t-159 -127t-187 -40q-104 0 -183 39t-133 99l95 106q41 -47 97 -75.5t118 -28.5q70 0 131 28.5t108 95t76 173t31 264.5q-61 -78 -143 -123
t-164 -45q-170 0 -270.5 100.5t-100.5 302.5zM240 911q0 -129 59 -202.5t182 -73.5q63 0 136 40t139 134q-16 193 -90 291t-199 98q-47 0 -89 -20.5t-73 -58.5t-48 -91t-17 -117z" />
    <glyph glyph-name="colon" unicode=":" horiz-adv-x="509" 
d="M133 102q0 59 36 95t87 36q49 0 85 -35.5t36 -95.5q0 -55 -36 -91t-85 -36q-51 0 -87 36t-36 91zM133 841q0 59 36 95t87 36q49 0 85 -35.5t36 -95.5q0 -55 -36 -91t-85 -36q-51 0 -87 36t-36 91z" />
    <glyph glyph-name="semicolon" unicode=";" horiz-adv-x="509" 
d="M96 -250q86 39 135.5 102.5t49.5 147.5q-6 -2 -21 -2q-49 0 -85 29.5t-36 87.5q0 55 37 86.5t88 31.5q66 0 104 -53t38 -145q0 -133 -72 -231.5t-197 -151.5zM133 841q0 59 36 95t87 36q49 0 85 -35.5t36 -95.5q0 -55 -36 -91t-85 -36q-51 0 -87 36t-36 91z" />
    <glyph glyph-name="less" unicode="&#x3c;" 
d="M70 612v136l878 344v-146l-432 -160l-274 -102v-8l274 -103l432 -159v-146z" />
    <glyph glyph-name="equal" unicode="=" 
d="M70 395v127h878v-127h-878zM70 831v127h878v-127h-878z" />
    <glyph glyph-name="greater" unicode="&#x3e;" 
d="M70 268v146l432 159l274 103v8l-274 102l-432 160v146l878 -344v-136z" />
    <glyph glyph-name="question" unicode="?" horiz-adv-x="870" 
d="M78 1227q66 74 149.5 122t194.5 48q160 0 255 -87t95 -241q0 -68 -24.5 -123t-60.5 -104t-76 -97.5t-73.5 -99.5t-52 -109.5t-10.5 -129.5h-147q-12 80 5 144t48 118.5t71 101.5t74.5 93t58 93.5t23.5 102.5q0 82 -50 140t-148 58q-68 0 -128.5 -31.5t-107.5 -86.5z
M285 102q0 59 34.5 95t86.5 36q51 0 86.5 -35.5t35.5 -95.5q0 -55 -35.5 -91t-86.5 -36t-86 36t-35 91z" />
    <glyph glyph-name="at" unicode="@" horiz-adv-x="1734" 
d="M104 416q0 205 69 372.5t186.5 286.5t272 183.5t326.5 64.5q156 0 280 -49t211 -138t134 -214t47 -277q0 -135 -38 -236.5t-97 -170t-132 -103.5t-142 -35q-84 0 -142.5 39t-68.5 117h-4q-51 -59 -117 -99t-133 -40q-104 0 -175 73.5t-71 215.5q0 82 27.5 166.5t79 153.5
t124 112t162.5 43q53 0 94 -23.5t70 -75.5h4l23 82h112l-80 -409q-61 -240 111 -240q49 0 97 28.5t88 83t64.5 133.5t24.5 179q0 123 -35.5 228.5t-107.5 181t-178.5 118.5t-245.5 43q-137 0 -266 -56t-229.5 -158.5t-161 -248t-60.5 -325.5q0 -150 46 -266.5t128 -196.5
t194 -122t243 -42q94 0 178 25.5t153 66.5l45 -100q-174 -104 -389 -104q-152 0 -282.5 47t-228 140t-154 230.5t-56.5 315.5zM645 416q0 -98 41 -141.5t102 -43.5q43 0 89.5 29t99.5 92l59 326q-29 47 -59.5 66.5t-71.5 19.5q-61 0 -109 -33t-82 -84t-51.5 -112.5
t-17.5 -118.5z" />
    <glyph glyph-name="A" unicode="A" horiz-adv-x="1114" 
d="M6 0l455 1343h192l455 -1343h-182l-127 410h-490l-129 -410h-174zM352 547h404l-64 205q-37 113 -69.5 224t-65.5 228h-8q-31 -117 -63.5 -228.5t-69.5 -223.5z" />
    <glyph glyph-name="B" unicode="B" horiz-adv-x="1204" 
d="M184 0v1343h400q102 0 187 -18t145.5 -57t94 -101.5t33.5 -150.5q0 -100 -57 -181t-176 -112v-8q147 -23 229 -103t82 -219q0 -98 -36.5 -172t-104.5 -123t-162 -73.5t-207 -24.5h-428zM354 135h234q174 0 270 64.5t96 201.5q0 125 -94 183.5t-272 58.5h-234v-508z
M354 770h199q174 0 249 59.5t75 171.5q0 111 -79 159t-237 48h-207v-438z" />
    <glyph glyph-name="C" unicode="C" horiz-adv-x="1169" 
d="M106 672q0 162 45.5 291t125 219t189 138t239.5 48q123 0 215 -50t151 -116l-96 -108q-53 57 -117.5 91t-150.5 34q-96 0 -174 -38t-133.5 -109t-86 -171t-30.5 -225q0 -127 29.5 -228.5t83 -173t130 -110.5t172.5 -39q98 0 171 39t139 110l96 -104
q-80 -92 -180.5 -143.5t-229.5 -51.5q-127 0 -234.5 47.5t-186 136.5t-123 219t-44.5 294z" />
    <glyph glyph-name="D" unicode="D" horiz-adv-x="1259" 
d="M184 0v1343h336q311 0 473 -172t162 -493q0 -160 -41 -286t-121 -213t-196.5 -133t-268.5 -46h-344zM354 139h154q236 0 353.5 141.5t117.5 397.5t-118 391t-353 135h-154v-1065z" />
    <glyph glyph-name="E" unicode="E" horiz-adv-x="1079" 
d="M184 0v1343h774v-143h-604v-422h510v-145h-510v-488h625v-145h-795z" />
    <glyph glyph-name="F" unicode="F" horiz-adv-x="1011" 
d="M184 0v1343h774v-143h-604v-455h512v-143h-512v-602h-170z" />
    <glyph glyph-name="G" unicode="G" horiz-adv-x="1263" 
d="M106 672q0 162 46.5 291t129.5 219t195.5 138t247.5 48q139 0 232.5 -52t152.5 -114l-96 -108q-51 53 -118 89t-169 36t-184 -38t-139.5 -109t-89 -171t-31.5 -225q0 -127 29.5 -228.5t86 -173t139.5 -110.5t191 -39q72 0 136.5 21.5t105.5 58.5v350h-285v141h440v-565
q-66 -68 -173 -112t-242 -44q-133 0 -244 47.5t-190.5 136.5t-125 219t-45.5 294z" />
    <glyph glyph-name="H" unicode="H" horiz-adv-x="1335" 
d="M184 0v1343h170v-563h625v563h172v-1343h-172v633h-625v-633h-170z" />
    <glyph glyph-name="I" unicode="I" horiz-adv-x="538" 
d="M184 0v1343h170v-1343h-170z" />
    <glyph glyph-name="J" unicode="J" horiz-adv-x="983" 
d="M63 190l123 86q45 -80 102.5 -115.5t129.5 -35.5q109 0 162 66.5t53 220.5v931h172v-948q0 -86 -21.5 -162.5t-65.5 -134t-115 -90.5t-169 -33q-252 0 -371 215z" />
    <glyph glyph-name="K" unicode="K" horiz-adv-x="1185" 
d="M184 0v1343h170v-673h6l560 673h192l-420 -512l486 -831h-191l-401 698l-232 -272v-426h-170z" />
    <glyph glyph-name="L" unicode="L" horiz-adv-x="995" 
d="M184 0v1343h170v-1198h588v-145h-758z" />
    <glyph glyph-name="M" unicode="M" horiz-adv-x="1488" 
d="M184 0v1343h201l260 -720l98 -275h9l94 275l258 720h201v-1343h-162v739q0 90 7 199t15 199h-8l-108 -299l-258 -703h-97l-260 703l-106 299h-9q6 -90 14.5 -199t8.5 -199v-739h-158z" />
    <glyph glyph-name="N" unicode="N" horiz-adv-x="1325" 
d="M184 0v1343h176l486 -843l145 -279h8q-6 102 -13 212t-7 216v694h162v-1343h-176l-488 846l-145 276h-8q8 -102 15 -207.5t7 -212.5v-702h-162z" />
    <glyph glyph-name="O" unicode="O" horiz-adv-x="1359" 
d="M106 678q0 162 42 290t118 217t181.5 136t232.5 47t232.5 -48t182 -137t118.5 -217t42 -288q0 -162 -42 -292t-118.5 -221t-182 -140.5t-232.5 -49.5t-232.5 49.5t-181.5 140.5t-118 221t-42 292zM283 678q0 -127 28.5 -228.5t80.5 -174t125 -111.5t163 -39t162.5 39
t125 111.5t81 174t28.5 228.5q0 125 -28.5 225.5t-81 170t-125 107.5t-162.5 38t-163 -38t-125 -107.5t-80.5 -170t-28.5 -225.5z" />
    <glyph glyph-name="P" unicode="P" horiz-adv-x="1179" 
d="M184 0v1343h412q111 0 203 -20t156.5 -66.5t100.5 -122t36 -186.5q0 -106 -36 -184t-101.5 -129t-156.5 -77t-202 -26h-242v-532h-170zM354 672h221q176 0 261.5 66.5t85.5 209.5q0 145 -86 201.5t-261 56.5h-221v-534z" />
    <glyph glyph-name="Q" unicode="Q" horiz-adv-x="1359" 
d="M106 678q0 162 42 290t118 217t181.5 136t232.5 47t232.5 -48t182 -137t118.5 -217t42 -288q0 -145 -33.5 -265t-96 -209t-150.5 -145.5t-195 -74.5q47 -90 133 -133.5t197 -43.5q45 0 79 6.5t62 14.5l33 -133q-31 -10 -82 -20.5t-110 -10.5q-186 0 -311.5 89t-184.5 229
q-111 14 -201 69t-154.5 145.5t-99.5 212t-35 269.5zM283 678q0 -129 28.5 -232.5t80.5 -177t125 -112.5t163 -39t162.5 39t125 112.5t81 177t28.5 232.5q0 125 -28.5 225.5t-81 170t-125 107.5t-162.5 38t-163 -38t-125 -107.5t-80.5 -170t-28.5 -225.5z" />
    <glyph glyph-name="R" unicode="R" horiz-adv-x="1189" 
d="M184 0v1343h420q102 0 189.5 -19t150 -64.5t97 -117t34.5 -175.5q0 -158 -82 -252t-219 -129l340 -586h-192l-324 567h-244v-567h-170zM354 707h226q158 0 241.5 64.5t83.5 195.5q0 133 -84 186t-241 53h-226v-499z" />
    <glyph glyph-name="S" unicode="S" horiz-adv-x="1093" 
d="M86 174l102 119q72 -76 169.5 -122t201.5 -46q133 0 207 60.5t74 158.5q0 51 -17.5 87t-47.5 61.5t-70.5 46t-88.5 43.5l-192 84q-47 20 -96 48.5t-88 69.5t-63.5 97.5t-24.5 130.5q0 76 31.5 141.5t88 113.5t133 74.5t168.5 26.5q121 0 223.5 -46t174.5 -120l-92 -110
q-61 59 -136 93t-170 34q-113 0 -181 -52.5t-68 -144.5q0 -49 19 -83t52 -59.5t72 -45t80 -35.5l190 -82q57 -25 108.5 -56.5t88.5 -73.5t58.5 -98.5t21.5 -130.5q0 -80 -32 -149.5t-91.5 -121.5t-143 -82t-190.5 -30q-141 0 -262 53.5t-209 145.5z" />
    <glyph glyph-name="T" unicode="T" horiz-adv-x="1097" 
d="M57 1200v143h983v-143h-405v-1200h-172v1200h-406z" />
    <glyph glyph-name="U" unicode="U" horiz-adv-x="1320" 
d="M178 555v788h170v-792q0 -121 24.5 -203t66.5 -131t99.5 -70.5t123.5 -21.5q68 0 125 21.5t100 70.5t67.5 131t24.5 203v792h164v-788q0 -162 -37 -272.5t-101.5 -179t-152.5 -98.5t-190 -30t-191.5 30t-154 98.5t-101.5 179t-37 272.5z" />
    <glyph glyph-name="V" unicode="V" horiz-adv-x="1054" 
d="M0 1343h182l215 -725q37 -121 64.5 -223t66.5 -221h9q37 119 65.5 221.5t63.5 222.5l215 725h174l-426 -1343h-199z" />
    <glyph glyph-name="W" unicode="W" horiz-adv-x="1609" 
d="M47 1343h176l142 -731q18 -111 38.5 -217t38.5 -217h9q23 111 47 218.5t47 215.5l186 731h156l186 -731q25 -106 49.5 -214.5t48.5 -219.5h9q18 111 36.5 218.5t38.5 215.5l142 731h164l-279 -1343h-205l-203 809q-18 78 -33.5 152.5t-31.5 152.5h-8
q-16 -78 -33.5 -152.5t-34.5 -152.5l-198 -809h-203z" />
    <glyph glyph-name="X" unicode="X" horiz-adv-x="1050" 
d="M31 0l391 694l-365 649h189l182 -344q27 -47 50.5 -91t53.5 -103h9q29 59 50 103t46 91l178 344h180l-366 -657l391 -686h-189l-196 362q-27 49 -54.5 101.5t-60.5 114.5h-8q-29 -61 -55.5 -113.5t-50.5 -102.5l-195 -362h-180z" />
    <glyph glyph-name="Y" unicode="Y" horiz-adv-x="974" 
d="M-2 1343h182l174 -378q33 -74 64 -145.5t65 -147.5h9q35 76 69.5 147.5t65.5 145.5l172 378h178l-404 -823v-520h-172v520z" />
    <glyph glyph-name="Z" unicode="Z" horiz-adv-x="1103" 
d="M92 0v102l707 1098h-643v143h856v-100l-709 -1098h715v-145h-926z" />
    <glyph glyph-name="bracketleft" unicode="[" horiz-adv-x="620" 
d="M193 -311v1761h366v-96h-240v-1569h240v-96h-366z" />
    <glyph glyph-name="backslash" unicode="\" horiz-adv-x="716" 
d="M29 1454h121l546 -1782h-121z" />
    <glyph glyph-name="bracketright" unicode="]" horiz-adv-x="620" 
d="M63 -215h238v1569h-238v96h365v-1761h-365v96z" />
    <glyph glyph-name="asciicircum" unicode="^" 
d="M123 582l311 790h150l311 -790h-147l-134 360l-100 272h-8l-103 -272l-133 -360h-147z" />
    <glyph glyph-name="underscore" unicode="_" horiz-adv-x="1024" 
d="M25 -145h974v-113h-974v113z" />
    <glyph glyph-name="grave" unicode="`" horiz-adv-x="1110" 
d="M328 1462h176l184 -288h-129z" />
    <glyph glyph-name="a" unicode="a" horiz-adv-x="1048" 
d="M119 258q0 164 146.5 251t465.5 122q0 47 -9 92t-32.5 80t-62.5 56.5t-101 21.5q-88 0 -162.5 -33t-134.5 -74l-67 117q70 45 170 87t221 42q182 0 264 -111.5t82 -298.5v-610h-139l-15 119h-4q-72 -59 -154.5 -101.5t-174.5 -42.5q-127 0 -210 74t-83 209zM285 270
q0 -86 50 -122.5t124 -36.5q72 0 136 33.5t136 99.5v276q-125 -16 -211 -38.5t-138 -53.5t-74.5 -71t-22.5 -87z" />
    <glyph glyph-name="b" unicode="b" horiz-adv-x="1136" 
d="M168 0v1458h168v-397l-4 -180q68 59 147.5 99t163.5 40q96 0 170 -36t124 -102.5t75.5 -159.5t25.5 -208q0 -127 -34.5 -227.5t-94 -170t-137.5 -105.5t-164 -36q-70 0 -144.5 32t-139.5 91h-7l-14 -98h-135zM336 221q66 -57 130 -80.5t114 -23.5q61 0 113 27.5t90 77.5
t59.5 124t21.5 166q0 82 -14 149.5t-46 115.5t-82 75t-120 27q-121 0 -266 -136v-522z" />
    <glyph glyph-name="c" unicode="c" horiz-adv-x="933" 
d="M94 496q0 125 39 222t104.5 164.5t152.5 102.5t183 35q98 0 169 -36t122 -83l-84 -108q-45 39 -93 63.5t-107 24.5q-68 0 -125.5 -28t-98.5 -79t-64.5 -121.5t-23.5 -156.5t22.5 -156t62.5 -120t97.5 -77.5t124.5 -27.5q72 0 130.5 29.5t103.5 70.5l76 -111
q-68 -59 -151 -94t-173 -35q-98 0 -184 35t-148.5 101.5t-98.5 164t-36 220.5z" />
    <glyph glyph-name="d" unicode="d" horiz-adv-x="1136" 
d="M96 496q0 121 36 218t95.5 164.5t137 104.5t163.5 37t149.5 -31t129.5 -84l-8 170v383h170v-1458h-140l-14 117h-6q-59 -57 -136 -99.5t-165 -42.5q-188 0 -300 135.5t-112 385.5zM270 498q0 -180 72 -280.5t203 -100.5q70 0 131 33.5t123 103.5v520q-63 57 -122 81
t-120 24q-59 0 -111.5 -28t-91.5 -78t-61.5 -119.5t-22.5 -155.5z" />
    <glyph glyph-name="e" unicode="e" horiz-adv-x="1015" 
d="M94 496q0 123 38 220t100.5 164.5t142.5 103.5t166 36q94 0 168.5 -33t125 -94.5t77 -147.5t26.5 -192q0 -55 -6 -92h-672q10 -162 99.5 -256t232.5 -94q72 0 132 21.5t116 55.5l59 -110q-66 -41 -145.5 -72t-182.5 -31q-100 0 -187 36t-151.5 102.5t-101.5 163
t-37 219.5zM258 571h533q0 154 -64.5 235t-181.5 81q-53 0 -101.5 -21.5t-87.5 -61.5t-64.5 -98.5t-33.5 -134.5z" />
    <glyph glyph-name="f" unicode="f" horiz-adv-x="598" 
d="M61 858v127l136 10v158q0 154 70.5 242t219.5 88q47 0 89 -9.5t77 -23.5l-37 -129q-55 25 -112 25q-139 0 -139 -193v-158h210v-137h-210v-858h-168v858h-136z" />
    <glyph glyph-name="g" unicode="g" horiz-adv-x="1032" 
d="M92 -190q0 63 39 120.5t107 104.5v8q-37 23 -62.5 62.5t-25.5 99.5q0 63 34.5 110t73.5 74v8q-49 41 -89 109.5t-40 159.5q0 82 29.5 147.5t81 111.5t120 70.5t144.5 24.5q41 0 76.5 -7t64.5 -18h346v-129h-205q35 -35 58.5 -88t23.5 -116q0 -80 -28.5 -144.5
t-77.5 -108.5t-115.5 -69t-142.5 -25q-37 0 -76 9.5t-74 25.5q-27 -23 -45 -50.5t-18 -68.5q0 -47 37 -77.5t139 -30.5h192q174 0 261.5 -56.5t87.5 -181.5q0 -70 -35 -132t-100.5 -109t-158.5 -75t-210 -28q-92 0 -168 17.5t-130 52.5t-84 84t-30 115zM240 -168
q0 -80 76.5 -127t211.5 -47q72 0 130.5 17.5t99.5 45t63.5 64.5t22.5 76q0 70 -51.5 96.5t-149.5 26.5h-172q-29 0 -62.5 3t-66.5 13q-53 -39 -77.5 -82t-24.5 -86zM293 666q0 -55 16.5 -99.5t46 -75t67.5 -47t81 -16.5t81 16.5t67.5 47t46 74.5t16.5 100q0 111 -61.5 171
t-149.5 60t-149.5 -60.5t-61.5 -170.5z" />
    <glyph glyph-name="h" unicode="h" horiz-adv-x="1114" 
d="M168 0v1458h168v-397l-6 -205q72 68 149.5 116t182.5 48q158 0 230.5 -98.5t72.5 -290.5v-631h-168v608q0 141 -45 203.5t-144 62.5q-78 0 -137 -38.5t-135 -114.5v-721h-168z" />
    <glyph glyph-name="i" unicode="i" horiz-adv-x="503" 
d="M137 1309q0 49 34 78.5t83 29.5t83 -29.5t34 -78.5q0 -47 -34 -78t-83 -31t-83 31t-34 78zM168 0v995h168v-995h-168z" />
    <glyph glyph-name="j" unicode="j" horiz-adv-x="505" 
d="M-82 -418l35 127q18 -6 42.5 -11t51.5 -5q74 0 98.5 51t24.5 143v1108h168v-1108q0 -152 -61.5 -241.5t-210.5 -89.5q-47 0 -84 8t-64 18zM139 1309q0 49 34 78.5t83 29.5q47 0 81 -29.5t34 -78.5q0 -47 -34 -78t-81 -31q-49 0 -83 31t-34 78z" />
    <glyph glyph-name="k" unicode="k" horiz-adv-x="1013" 
d="M168 0v1458h166v-987h6l424 524h186l-334 -399l379 -596h-184l-291 479l-186 -217v-262h-166z" />
    <glyph glyph-name="l" unicode="l" horiz-adv-x="522" 
d="M168 201v1257h168v-1270q0 -41 14.5 -57t32.5 -16h15.5t21.5 4l22 -127q-16 -8 -38.5 -12.5t-57.5 -4.5q-96 0 -137 57.5t-41 168.5z" />
    <glyph glyph-name="m" unicode="m" horiz-adv-x="1697" 
d="M168 0v995h139l15 -143h6q66 72 142.5 120t166.5 48q115 0 179.5 -50t94.5 -141q78 86 157 138.5t171 52.5q154 0 228.5 -98.5t74.5 -290.5v-631h-168v608q0 141 -45 203.5t-139 62.5q-113 0 -250 -153v-721h-168v608q0 141 -45 203.5t-141 62.5q-113 0 -250 -153v-721
h-168z" />
    <glyph glyph-name="n" unicode="n" horiz-adv-x="1120" 
d="M168 0v995h139l15 -143h6q72 72 150.5 120t183.5 48q158 0 230.5 -98.5t72.5 -290.5v-631h-168v608q0 141 -45 203.5t-144 62.5q-78 0 -137 -38.5t-135 -114.5v-721h-168z" />
    <glyph glyph-name="o" unicode="o" horiz-adv-x="1110" 
d="M94 496q0 125 38 222t101.5 164.5t146.5 102.5t175 35t175 -35t146.5 -102.5t101.5 -164.5t38 -222q0 -123 -38 -220.5t-101.5 -164t-146.5 -101.5t-175 -35t-175 35t-146.5 101.5t-101.5 164t-38 220.5zM268 496q0 -86 20.5 -156t58.5 -120t91.5 -77.5t116.5 -27.5
t116.5 27.5t91.5 77.5t58.5 120t20.5 156t-20.5 156.5t-58.5 121.5t-91.5 79t-116.5 28t-116.5 -28t-91.5 -79t-58.5 -121.5t-20.5 -156.5z" />
    <glyph glyph-name="p" unicode="p" horiz-adv-x="1136" 
d="M168 -420v1415h139l15 -114h6q68 57 148.5 98t168.5 41q96 0 170 -36t123 -102.5t74.5 -159.5t25.5 -210q0 -127 -34.5 -226.5t-94 -169t-137.5 -105.5t-164 -36q-70 0 -138.5 31t-137.5 84l4 -174v-336h-168zM336 221q68 -57 131 -80.5t113 -23.5q61 0 113 27.5t90 77.5
t59.5 124t21.5 166q0 82 -14 149.5t-46 115.5t-82 75t-120 27q-63 0 -127.5 -35t-138.5 -101v-522z" />
    <glyph glyph-name="q" unicode="q" horiz-adv-x="1126" 
d="M96 496q0 121 36 218t95.5 164.5t137 104.5t163.5 37t151.5 -29.5t133.5 -89.5h4l17 94h135v-1415h-170v354l8 177q-59 -55 -136 -95.5t-163 -40.5q-188 0 -300 135.5t-112 385.5zM270 498q0 -180 72 -280.5t203 -100.5q70 0 131 33.5t123 103.5v520q-63 57 -122 81
t-120 24q-59 0 -111.5 -28t-91.5 -78t-61.5 -119.5t-22.5 -155.5z" />
    <glyph glyph-name="r" unicode="r" horiz-adv-x="710" 
d="M168 0v995h139l15 -180h6q51 94 123.5 149.5t158.5 55.5q59 0 107 -21l-33 -147q-25 8 -45.5 12t-50.5 4q-63 0 -132 -51t-120 -178v-639h-168z" />
    <glyph glyph-name="s" unicode="s" horiz-adv-x="858" 
d="M57 113l84 112q66 -53 134.5 -86t158.5 -33q98 0 147.5 45.5t49.5 110.5q0 39 -20.5 67.5t-52.5 50t-73 38t-82 33.5q-53 18 -106 41.5t-95 57.5t-69 79t-27 108q0 59 24 111.5t68 90.5t107.5 59.5t143.5 21.5q94 0 172.5 -33t136.5 -80l-80 -106q-51 39 -106.5 63.5
t-120.5 24.5q-94 0 -138.5 -43t-44.5 -101q0 -35 18.5 -60.5t49.5 -44.5t70.5 -34.5t82.5 -32.5q53 -20 107.5 -42.5t97.5 -56.5t71 -83t28 -119q0 -61 -24 -114.5t-70 -94t-114.5 -64.5t-156.5 -24q-106 0 -202.5 39t-168.5 99z" />
    <glyph glyph-name="t" unicode="t" horiz-adv-x="692" 
d="M49 858v127l156 10l20 279h142v-279h268v-137h-268v-553q0 -92 33.5 -142t119.5 -50q27 0 57.5 8t55.5 18l33 -127q-41 -14 -89.5 -25.5t-95.5 -11.5q-80 0 -134 25t-88 68t-48 104t-14 135v551h-148z" />
    <glyph glyph-name="u" unicode="u" horiz-adv-x="1114" 
d="M154 365v630h170v-608q0 -141 44 -203.5t142 -62.5q78 0 137.5 40t130.5 128v706h168v-995h-139l-14 156h-7q-70 -82 -146.5 -131.5t-180.5 -49.5q-160 0 -232.5 98.5t-72.5 291.5z" />
    <glyph glyph-name="v" unicode="v" horiz-adv-x="956" 
d="M25 995h174l188 -565q23 -74 46.5 -147.5t45.5 -145.5h8q23 72 45.5 145.5t45.5 147.5l188 565h166l-352 -995h-197z" />
    <glyph glyph-name="w" unicode="w" horiz-adv-x="1470" 
d="M49 995h172l148 -575q16 -72 30.5 -139.5t28.5 -137.5h8q16 70 32.5 138.5t35.5 138.5l153 575h164l156 -575q18 -72 35.5 -139.5t34.5 -137.5h8q16 70 30.5 137.5t30.5 139.5l146 575h159l-266 -995h-205l-143 535q-18 72 -33.5 141t-34.5 145h-8q-16 -76 -32.5 -146.5
t-36.5 -142.5l-140 -532h-196z" />
    <glyph glyph-name="x" unicode="x" horiz-adv-x="913" 
d="M29 0l325 520l-301 475h183l133 -219q23 -41 47 -83t51 -83h8q23 41 45.5 83t44.5 83l121 219h176l-301 -493l324 -502h-183l-145 231q-27 45 -53.5 90.5t-54.5 88.5h-9q-27 -43 -51 -87t-49 -92l-135 -231h-176z" />
    <glyph glyph-name="y" unicode="y" horiz-adv-x="956" 
d="M25 995h174l202 -551q23 -66 48.5 -138.5t48.5 -141.5h8q23 68 43 141.5t41 138.5l178 551h164l-375 -1077q-27 -74 -59.5 -137.5t-77.5 -109.5t-102.5 -72.5t-133.5 -26.5q-35 0 -63.5 5t-52.5 15l32 134q16 -4 37 -9.5t39 -5.5q86 0 140.5 60.5t84.5 152.5l23 74z" />
    <glyph glyph-name="z" unicode="z" horiz-adv-x="870" 
d="M63 0v90l525 768h-467v137h680v-90l-525 -768h541v-137h-754z" />
    <glyph glyph-name="braceleft" unicode="{" horiz-adv-x="620" 
d="M70 516v107q51 0 85.5 14t54 35.5t28 50.5t8.5 57q0 104 -9.5 194.5t-9.5 203.5q0 158 59.5 215t180.5 57h92v-96h-55q-84 0 -111.5 -43t-27.5 -144q0 -94 6 -180t6 -190q0 -100 -29 -152.5t-94 -71.5v-8q66 -18 94.5 -71.5t28.5 -151.5q0 -104 -6 -190t-6 -181
q0 -100 27.5 -143t111.5 -43h55v-96h-92q-121 0 -180.5 57t-59.5 215q0 55 3 105.5t6.5 97.5t6.5 94t3 98q0 31 -8.5 58.5t-28 50t-54 37t-85.5 14.5z" />
    <glyph glyph-name="bar" unicode="|" horiz-adv-x="493" 
d="M188 -512v2048h119v-2048h-119z" />
    <glyph glyph-name="braceright" unicode="}" horiz-adv-x="620" 
d="M63 -215h54q84 0 111.5 43t27.5 143q0 94 -5 180.5t-5 190.5q0 98 27.5 151.5t93.5 71.5v8q-66 18 -93.5 70.5t-27.5 153.5q0 104 5 190t5 180q0 100 -27.5 143.5t-111.5 43.5h-54v96h91q61 0 106 -13.5t75 -44t44 -83t14 -131.5q0 -113 -9 -203t-9 -195q0 -59 37 -107
t139 -50v-107q-51 0 -85 -14.5t-54.5 -37t-28.5 -50t-8 -58.5q0 -51 3 -98l6 -94t6 -97.5t3 -105.5q0 -80 -14 -132t-44 -83t-75 -44t-106 -13h-91v96z" />
    <glyph glyph-name="asciitilde" unicode="~" 
d="M74 641q55 98 122.5 141t133.5 43q61 0 109 -26.5t90 -59t81 -59.5t82 -27q45 0 84 30t74 95l94 -69q-55 -98 -122.5 -140.5t-133.5 -42.5q-61 0 -109.5 27t-90.5 59.5t-80.5 59t-81.5 26.5q-45 0 -84 -29.5t-74 -95.5z" />
    <glyph glyph-name="uni00A0" unicode="&#xa0;" horiz-adv-x="413" 
 />
    <glyph glyph-name="exclamdown" unicode="&#xa1;" horiz-adv-x="591" 
d="M174 893q0 55 36 91t87 36q49 0 85 -36t36 -91q0 -59 -36 -95t-85 -36q-51 0 -87 36t-36 95zM211 -377l4 193l23 774h116l23 -774l4 -193h-170z" />
    <glyph glyph-name="cent" unicode="&#xa2;" 
d="M125 635q0 106 31.5 190t87 145.5t131.5 99.5t162 50v217h106v-211q90 -4 155.5 -38.5t112.5 -79.5l-82 -107q-41 37 -87 59.5t-99 26.5v-704q66 4 119 31.5t94 64.5l74 -107q-59 -53 -133 -87.5t-154 -41.5v-211h-106v213q-92 10 -168 48t-130.5 99.5t-84 147.5
t-29.5 195zM293 635q0 -137 63.5 -227.5t180.5 -116.5v686q-113 -27 -178.5 -117t-65.5 -225z" />
    <glyph glyph-name="sterling" unicode="&#xa3;" 
d="M109 584v106l137 8h37q-20 66 -38 128.5t-18 127.5q0 86 28 156t78 119t119.5 75.5t155.5 26.5q111 0 187.5 -44t130.5 -109l-99 -97q-39 47 -88 78t-118 31q-111 0 -169.5 -66.5t-58.5 -173.5q0 -66 15.5 -126t33.5 -126h326v-114h-299q4 -29 7 -56.5t3 -58.5
q0 -109 -32.5 -180.5t-94.5 -134.5v-9h576v-145h-817v102q104 57 160.5 154.5t56.5 214.5q0 29 -4.5 56.5t-10.5 56.5h-204z" />
    <glyph glyph-name="currency" unicode="&#xa4;" 
d="M53 303l131 133q-35 47 -54 106.5t-19 131.5t19.5 132t53.5 107l-131 136l90 92l140 -144q98 76 227 76q59 0 118.5 -19.5t106.5 -56.5l139 144l91 -92l-134 -136q35 -47 55.5 -107.5t20.5 -131.5q0 -72 -20.5 -131.5t-55.5 -106.5l134 -133l-91 -92l-139 141
q-47 -39 -106.5 -58.5t-118.5 -19.5q-131 0 -227 78l-140 -141zM266 674q0 -61 19.5 -111.5t52.5 -87.5t78 -56.5t94 -19.5t93 19.5t77 56.5t52.5 87t19.5 112q0 61 -19.5 111.5t-52.5 87t-77 56t-93 19.5t-94 -19.5t-78 -56t-52.5 -87t-19.5 -111.5z" />
    <glyph glyph-name="yen" unicode="&#xa5;" 
d="M47 1307h176l160 -351q31 -68 60.5 -136t62.5 -140h8q35 72 64.5 140.5t60.5 135.5l160 351h172l-336 -656h291v-96h-334v-133h334v-98h-334v-324h-168v324h-332v98h332v133h-332v96h289z" />
    <glyph glyph-name="brokenbar" unicode="&#xa6;" horiz-adv-x="493" 
d="M188 438h119v-950h-119v950zM188 596v940h119v-940h-119z" />
    <glyph glyph-name="section" unicode="&#xa7;" 
d="M92 702q0 90 49 156t127 109q-31 33 -48 73.5t-17 94.5q0 53 19.5 101t59.5 85t97 58.5t135 21.5q98 0 177 -35t138 -82l-81 -108q-49 41 -104.5 67.5t-123.5 26.5q-86 0 -124 -38t-38 -91q0 -55 42 -92t105.5 -68t136.5 -61.5t136.5 -74.5t105.5 -106.5t42 -156.5
q0 -98 -48.5 -159t-125.5 -106q29 -35 45 -74.5t16 -92.5q0 -61 -24.5 -112.5t-68.5 -88.5t-104.5 -58.5t-132.5 -21.5q-111 0 -200.5 39t-153.5 106l102 92q51 -49 110.5 -77.5t141.5 -28.5t128 41t46 100q0 57 -42 96t-104 70t-136 60.5t-136.5 72.5t-104.5 105.5
t-42 156.5zM240 713q0 -68 41 -112t103 -76.5t135 -62.5t136 -67q59 29 91 68t32 106q0 70 -41 115t-102.5 79t-134 62.5t-135.5 65.5q-59 -33 -92 -74t-33 -104z" />
    <glyph glyph-name="dieresis" unicode="&#xa8;" horiz-adv-x="1110" 
d="M279 1305q0 43 27.5 71.5t72.5 28.5q43 0 71.5 -28.5t28.5 -71.5t-28.5 -72t-71.5 -29q-45 0 -72.5 29t-27.5 72zM631 1305q0 43 28.5 71.5t71.5 28.5q45 0 72.5 -28.5t27.5 -71.5t-27.5 -72t-72.5 -29q-43 0 -71.5 29t-28.5 72z" />
    <glyph glyph-name="copyright" unicode="&#xa9;" horiz-adv-x="1523" 
d="M100 662q0 156 53.5 280.5t143.5 212.5t211 135t254 47t253 -47t211 -135t144 -213t53 -280q0 -158 -53 -284t-144 -215t-211 -137.5t-253 -48.5t-254 48.5t-211 137.5t-143.5 215t-53.5 284zM197 662q0 -135 45 -245t121.5 -188.5t179 -122t219.5 -43.5t219 43.5
t179 122t122 188t45 245.5q0 133 -45 242.5t-122 187t-179 119.5t-219 42t-219.5 -42t-179 -119.5t-121.5 -187t-45 -242.5zM406 662q0 88 31.5 159.5t83.5 122.5t121 78t142 27q86 0 146.5 -34t109.5 -83l-71 -80q-41 41 -83 62.5t-95 21.5q-113 0 -181.5 -77t-68.5 -197
q0 -135 66.5 -214t176.5 -79q66 0 115 25.5t94 64.5l62 -86q-57 -49 -121 -83t-156 -34q-78 0 -145.5 27.5t-118.5 80t-79.5 127.5t-28.5 171z" />
    <glyph glyph-name="ordfeminine" unicode="&#xaa;" horiz-adv-x="706" 
d="M76 723q0 109 97 165t310 77q-2 66 -28.5 108.5t-98.5 42.5q-53 0 -109.5 -21.5t-96.5 -47.5l-48 86q51 33 122 60.5t151 27.5q123 0 179 -72t56 -203v-401h-102l-14 76h-9q-41 -37 -92 -65t-114 -28q-92 0 -147.5 53.5t-55.5 141.5zM201 733q0 -53 30.5 -77.5
t83.5 -24.5q80 0 168 82v174q-158 -18 -220 -57t-62 -97z" />
    <glyph glyph-name="guillemotleft" unicode="&#xab;" horiz-adv-x="878" 
d="M92 453v127l279 317l73 -61l-241 -320l241 -323l-73 -58zM416 453v127l279 317l73 -61l-241 -320l241 -323l-73 -58z" />
    <glyph glyph-name="logicalnot" unicode="&#xac;" 
d="M70 612v127h878v-526h-135v399h-743z" />
    <glyph glyph-name="uni00AD" unicode="&#xad;" horiz-adv-x="636" 
d="M84 449v129h471v-129h-471z" />
    <glyph glyph-name="registered" unicode="&#xae;" horiz-adv-x="866" 
d="M47 1057q0 90 31 163.5t83 127t121.5 83t149.5 29.5t150.5 -29.5t123 -83t83 -127t30.5 -163.5t-30.5 -164t-83 -127t-123 -83t-150.5 -30t-149.5 30t-121.5 83t-83 127t-31 164zM129 1057q0 -74 23.5 -134.5t63.5 -103.5t95 -66.5t121 -23.5q63 0 119.5 23.5t97.5 66.5
t64.5 103.5t23.5 134.5q0 72 -23.5 132t-64.5 104t-97 68.5t-120 24.5q-66 0 -121 -24.5t-95 -68.5t-63.5 -104.5t-23.5 -131.5zM285 854v416h155q66 0 113 -30t47 -103q0 -37 -20.5 -69t-55.5 -44l94 -170h-94l-71 143h-84v-143h-84zM369 1063h53q88 0 88 70q0 31 -18.5 49
t-65.5 18h-57v-137z" />
    <glyph glyph-name="macron" unicode="&#xaf;" horiz-adv-x="1110" 
d="M303 1231v117h504v-117h-504z" />
    <glyph glyph-name="degree" unicode="&#xb0;" horiz-adv-x="677" 
d="M84 1139q0 61 20.5 109t56.5 83t82 53.5t97 18.5t97 -18.5t82 -53.5t56.5 -83t20.5 -109q0 -59 -20.5 -107.5t-56.5 -82.5t-82 -52t-97 -18t-97 18t-82 52t-56.5 82t-20.5 108zM186 1139q0 -72 43 -119t111 -47t111 47t43 119q0 76 -43 123t-111 47t-111 -47.5
t-43 -122.5z" />
    <glyph glyph-name="plusminus" unicode="&#xb1;" 
d="M70 0v127h878v-127h-878zM70 623v127h372v389h133v-389h373v-127h-373v-363h-133v363h-372z" />
    <glyph glyph-name="uni00B2" unicode="&#xb2;" horiz-adv-x="751" 
d="M82 1569q47 70 115.5 112.5t150.5 42.5q121 0 193.5 -65.5t72.5 -192.5q0 -57 -22.5 -110.5t-62.5 -107.5t-94 -111.5t-118 -122.5h338v-113h-549v76q92 84 164 150.5t119 121.5t71.5 103.5t24.5 93.5q0 78 -41 123t-112 45q-51 0 -94 -34t-78 -83z" />
    <glyph glyph-name="uni00B3" unicode="&#xb3;" horiz-adv-x="751" 
d="M72 1032l88 68q37 -55 88 -87t114 -32q66 0 113 37t47 106q0 70 -65.5 106t-182.5 36v84q104 0 161 40.5t57 102.5q0 57 -40 92t-106 35q-45 0 -86 -27.5t-76 -68.5l-80 69q53 59 116 95t147 36q51 0 97 -14t81 -42t55.5 -68t20.5 -91q0 -72 -39 -120t-101 -76
q68 -16 120 -66.5t52 -130.5q0 -55 -22.5 -99t-61.5 -76t-91 -48.5t-109 -16.5q-98 0 -174 44t-123 112z" />
    <glyph glyph-name="acute" unicode="&#xb4;" horiz-adv-x="1110" 
d="M422 1174l184 288h176l-231 -288h-129z" />
    <glyph glyph-name="mu" unicode="&#xb5;" horiz-adv-x="1126" 
d="M168 -410v1405h168v-608q0 -141 45 -203.5t143 -62.5q78 0 136.5 40t130.5 128v706h167v-995h-139l-14 156h-4q-59 -80 -130 -126t-157 -46q-59 0 -106.5 17t-81.5 71l10 -185v-297h-168z" />
    <glyph glyph-name="paragraph" unicode="&#xb6;" horiz-adv-x="1146" 
d="M84 907q0 121 37 204t103.5 135t156.5 74.5t197 22.5h90v-880h-68q-111 0 -206 25.5t-163.5 80t-107.5 138.5t-39 200zM778 -164v1507h172v-1507h-172z" />
    <glyph glyph-name="periodcentered" unicode="&#xb7;" horiz-adv-x="509" 
d="M133 657q0 59 36 95t87 36q49 0 85 -35.5t36 -95.5q0 -55 -36 -91t-85 -36q-51 0 -87 36t-36 91z" />
    <glyph glyph-name="cedilla" unicode="&#xb8;" horiz-adv-x="1110" 
d="M393 -352q82 10 132 33.5t50 64.5t-33.5 62.5t-95.5 37.5l82 160h109l-52 -108q49 -16 85 -49t36 -97q0 -45 -24.5 -77.5t-65.5 -55t-95 -36t-112 -19.5z" />
    <glyph glyph-name="uni00B9" unicode="&#xb9;" horiz-adv-x="751" 
d="M178 1532v86q68 12 113 31.5t86 50.5h106v-799h-131v631h-174z" />
    <glyph glyph-name="ordmasculine" unicode="&#xba;" horiz-adv-x="747" 
d="M61 874q0 82 25 146.5t68 109t99 68t120 23.5q63 0 119.5 -23.5t99.5 -68t67.5 -109t24.5 -146.5t-24.5 -146t-67.5 -108.5t-99.5 -68t-119.5 -23.5t-119.5 23.5t-99.5 68t-68 109t-25 145.5zM190 874q0 -109 48.5 -175t134.5 -66t133 66.5t47 174.5q0 111 -47 176.5
t-133 65.5t-134.5 -65.5t-48.5 -176.5z" />
    <glyph glyph-name="guillemotright" unicode="&#xbb;" horiz-adv-x="878" 
d="M111 193l241 323l-241 320l71 61l281 -317v-127l-281 -318zM435 193l241 323l-241 320l71 61l281 -317v-127l-281 -318z" />
    <glyph glyph-name="onequarter" unicode="&#xbc;" horiz-adv-x="1599" 
d="M131 1176v86q68 12 113 31.5t86 50.5h106v-799h-131v631h-174zM369 -25l741 1393h115l-741 -1393h-115zM932 213v68l336 518h147v-492h119v-94h-119v-213h-118v213h-365zM1069 307h228v144l8 223h-8l-103 -166z" />
    <glyph glyph-name="onehalf" unicode="&#xbd;" horiz-adv-x="1654" 
d="M131 1176v86q68 12 113 31.5t86 50.5h106v-799h-131v631h-174zM326 -25l741 1393h115l-741 -1393h-115zM985 668q47 70 115.5 112.5t150.5 42.5q121 0 193.5 -65.5t72.5 -192.5q0 -57 -22.5 -110.5t-62.5 -107.5t-94 -111.5t-118 -122.5h338v-113h-549v76
q92 84 164 150.5t119 121.5t71.5 103.5t24.5 93.5q0 78 -41 123t-112 45q-51 0 -94 -34t-78 -83z" />
    <glyph glyph-name="threequarters" unicode="&#xbe;" horiz-adv-x="1630" 
d="M72 676l88 68q37 -55 88 -87t114 -32q66 0 113 37t47 106q0 70 -65.5 106t-182.5 36v84q104 0 161 40.5t57 102.5q0 57 -40 92t-106 35q-45 0 -86 -27.5t-76 -68.5l-80 69q53 59 116 95t147 36q51 0 97 -14t81 -42t55.5 -68t20.5 -91q0 -72 -39 -120t-101 -76
q68 -16 120 -66.5t52 -130.5q0 -55 -22.5 -99t-61.5 -76t-91 -48.5t-109 -16.5q-98 0 -174 44t-123 112zM444 -25l741 1393h115l-741 -1393h-115zM963 213v68l336 518h147v-492h119v-94h-119v-213h-118v213h-365zM1100 307h228v144l8 223h-8l-103 -166z" />
    <glyph glyph-name="questiondown" unicode="&#xbf;" horiz-adv-x="870" 
d="M98 -74q0 68 24.5 123t60.5 104.5t76 97.5t73 99t51 109.5t10 130.5h150q10 -80 -6.5 -144.5t-47 -119t-70.5 -101.5t-75 -93t-58.5 -94t-23.5 -101q0 -82 49 -139.5t150 -57.5q68 0 127 30.5t106 86.5l99 -88q-66 -72 -150 -121t-194 -49q-160 0 -255.5 87t-95.5 240z
M342 893q0 55 36 91t87 36q49 0 85 -36t36 -91q0 -59 -36 -95t-85 -36q-51 0 -87 36t-36 95z" />
    <glyph glyph-name="Agrave" unicode="&#xc0;" horiz-adv-x="1114" 
d="M6 0l455 1343h192l455 -1343h-182l-127 410h-490l-129 -410h-174zM287 1675h192l180 -229h-141zM352 547h404l-64 205q-37 113 -69.5 224t-65.5 228h-8q-31 -117 -63.5 -228.5t-69.5 -223.5z" />
    <glyph glyph-name="Aacute" unicode="&#xc1;" horiz-adv-x="1114" 
d="M6 0l455 1343h192l455 -1343h-182l-127 410h-490l-129 -410h-174zM352 547h404l-64 205q-37 113 -69.5 224t-65.5 228h-8q-31 -117 -63.5 -228.5t-69.5 -223.5zM451 1446l180 229h192l-231 -229h-141z" />
    <glyph glyph-name="Acircumflex" unicode="&#xc2;" horiz-adv-x="1114" 
d="M6 0l455 1343h192l455 -1343h-182l-127 410h-490l-129 -410h-174zM276 1446l197 229h164l197 -229h-138l-137 139h-8l-137 -139h-138zM352 547h404l-64 205q-37 113 -69.5 224t-65.5 228h-8q-31 -117 -63.5 -228.5t-69.5 -223.5z" />
    <glyph glyph-name="Atilde" unicode="&#xc3;" horiz-adv-x="1114" 
d="M6 0l455 1343h192l455 -1343h-182l-127 410h-490l-129 -410h-174zM258 1456q10 96 55 158.5t119 62.5q41 0 74 -16t60.5 -36.5t54 -37t55.5 -16.5t51.5 27.5t30.5 78.5h94q-10 -94 -55 -157.5t-119 -63.5q-41 0 -74 16.5t-60.5 37t-54 37t-55.5 16.5t-51.5 -27t-30.5 -80
h-94zM352 547h404l-64 205q-37 113 -69.5 224t-65.5 228h-8q-31 -117 -63.5 -228.5t-69.5 -223.5z" />
    <glyph glyph-name="Adieresis" unicode="&#xc4;" horiz-adv-x="1114" 
d="M6 0l455 1343h192l455 -1343h-182l-127 410h-490l-129 -410h-174zM279 1565q0 45 27.5 72.5t72.5 27.5q43 0 71.5 -27.5t28.5 -72.5q0 -43 -28.5 -72t-71.5 -29q-45 0 -72.5 29t-27.5 72zM352 547h404l-64 205q-37 113 -69.5 224t-65.5 228h-8q-31 -117 -63.5 -228.5
t-69.5 -223.5zM631 1565q0 45 28.5 72.5t71.5 27.5q45 0 72.5 -27.5t27.5 -72.5q0 -43 -27.5 -72t-72.5 -29q-43 0 -71.5 29t-28.5 72z" />
    <glyph glyph-name="Aring" unicode="&#xc5;" horiz-adv-x="1114" 
d="M6 0l455 1343h192l455 -1343h-182l-127 410h-490l-129 -410h-174zM352 547h404l-64 205q-37 113 -69.5 224t-65.5 228h-8q-31 -117 -63.5 -228.5t-69.5 -223.5zM365 1612q0 82 53 131t137 49q82 0 136 -49t54 -131q0 -84 -54 -132t-136 -48q-84 0 -137 48t-53 132z
M457 1612q0 -51 28.5 -79t69.5 -28q39 0 67.5 28t28.5 79q0 47 -28.5 75.5t-67.5 28.5q-41 0 -69.5 -28.5t-28.5 -75.5z" />
    <glyph glyph-name="AE" unicode="&#xc6;" horiz-adv-x="1683" 
d="M16 0l705 1343h842v-143h-570v-422h475v-145h-475v-488h590v-145h-762v391h-422l-202 -391h-181zM469 528h352v680h-8q-109 -219 -219 -438z" />
    <glyph glyph-name="Ccedilla" unicode="&#xc7;" horiz-adv-x="1169" 
d="M106 672q0 162 45.5 291t125 219t189 138t239.5 48q123 0 215 -50t151 -116l-96 -108q-53 57 -117.5 91t-150.5 34q-96 0 -174 -38t-133.5 -109t-86 -171t-30.5 -225q0 -127 29.5 -228.5t83 -173t130 -110.5t172.5 -39q98 0 171 39t139 110l96 -104
q-80 -92 -180.5 -143.5t-229.5 -51.5q-127 0 -234.5 47.5t-186 136.5t-123 219t-44.5 294zM528 -352q82 10 132 33.5t50 64.5t-33.5 62.5t-95.5 37.5l82 160h109l-52 -108q49 -16 85 -49t36 -97q0 -45 -24.5 -77.5t-65.5 -55t-95 -36t-112 -19.5z" />
    <glyph glyph-name="Egrave" unicode="&#xc8;" horiz-adv-x="1079" 
d="M184 0v1343h774v-143h-604v-422h510v-145h-510v-488h625v-145h-795zM314 1675h192l180 -229h-141z" />
    <glyph glyph-name="Eacute" unicode="&#xc9;" horiz-adv-x="1079" 
d="M184 0v1343h774v-143h-604v-422h510v-145h-510v-488h625v-145h-795zM478 1446l180 229h192l-231 -229h-141z" />
    <glyph glyph-name="Ecircumflex" unicode="&#xca;" horiz-adv-x="1079" 
d="M184 0v1343h774v-143h-604v-422h510v-145h-510v-488h625v-145h-795zM303 1446l197 229h164l197 -229h-138l-137 139h-8l-137 -139h-138z" />
    <glyph glyph-name="Edieresis" unicode="&#xcb;" horiz-adv-x="1079" 
d="M184 0v1343h774v-143h-604v-422h510v-145h-510v-488h625v-145h-795zM306 1565q0 45 27.5 72.5t72.5 27.5q43 0 71.5 -27.5t28.5 -72.5q0 -43 -28.5 -72t-71.5 -29q-45 0 -72.5 29t-27.5 72zM658 1565q0 45 28.5 72.5t71.5 27.5q45 0 72.5 -27.5t27.5 -72.5
q0 -43 -27.5 -72t-72.5 -29q-43 0 -71.5 29t-28.5 72z" />
    <glyph glyph-name="Igrave" unicode="&#xcc;" horiz-adv-x="538" 
d="M0 1675h192l180 -229h-141zM184 0v1343h170v-1343h-170z" />
    <glyph glyph-name="Iacute" unicode="&#xcd;" horiz-adv-x="538" 
d="M164 1446l180 229h192l-231 -229h-141zM184 0v1343h170v-1343h-170z" />
    <glyph glyph-name="Icircumflex" unicode="&#xce;" horiz-adv-x="538" 
d="M-11 1446l197 229h164l197 -229h-138l-137 139h-8l-137 -139h-138zM184 0v1343h170v-1343h-170z" />
    <glyph glyph-name="Idieresis" unicode="&#xcf;" horiz-adv-x="538" 
d="M-8 1565q0 45 27.5 72.5t72.5 27.5q43 0 71.5 -27.5t28.5 -72.5q0 -43 -28.5 -72t-71.5 -29q-45 0 -72.5 29t-27.5 72zM184 0v1343h170v-1343h-170zM344 1565q0 45 28.5 72.5t71.5 27.5q45 0 72.5 -27.5t27.5 -72.5q0 -43 -27.5 -72t-72.5 -29q-43 0 -71.5 29t-28.5 72z
" />
    <glyph glyph-name="Eth" unicode="&#xd0;" horiz-adv-x="1306" 
d="M68 657v88l161 9v589h336q311 0 473 -172t162 -493q0 -160 -41 -286t-121 -213t-196.5 -133t-268.5 -46h-344v657h-161zM399 139h154q236 0 353.5 141.5t117.5 397.5t-118 391t-353 135h-154v-450h306v-97h-306v-518z" />
    <glyph glyph-name="Ntilde" unicode="&#xd1;" horiz-adv-x="1325" 
d="M184 0v1343h176l486 -843l145 -279h8q-6 102 -13 212t-7 216v694h162v-1343h-176l-488 846l-145 276h-8q8 -102 15 -207.5t7 -212.5v-702h-162zM371 1456q10 96 55 158.5t119 62.5q41 0 74 -16t60.5 -36.5t54 -37t55.5 -16.5t51.5 27.5t30.5 78.5h94q-10 -94 -55 -157.5
t-119 -63.5q-41 0 -74 16.5t-60.5 37t-54 37t-55.5 16.5t-51.5 -27t-30.5 -80h-94z" />
    <glyph glyph-name="Ograve" unicode="&#xd2;" horiz-adv-x="1359" 
d="M106 678q0 162 42 290t118 217t181.5 136t232.5 47t232.5 -48t182 -137t118.5 -217t42 -288q0 -162 -42 -292t-118.5 -221t-182 -140.5t-232.5 -49.5t-232.5 49.5t-181.5 140.5t-118 221t-42 292zM283 678q0 -127 28.5 -228.5t80.5 -174t125 -111.5t163 -39t162.5 39
t125 111.5t81 174t28.5 228.5q0 125 -28.5 225.5t-81 170t-125 107.5t-162.5 38t-163 -38t-125 -107.5t-80.5 -170t-28.5 -225.5zM412 1675h192l180 -229h-141z" />
    <glyph glyph-name="Oacute" unicode="&#xd3;" horiz-adv-x="1359" 
d="M106 678q0 162 42 290t118 217t181.5 136t232.5 47t232.5 -48t182 -137t118.5 -217t42 -288q0 -162 -42 -292t-118.5 -221t-182 -140.5t-232.5 -49.5t-232.5 49.5t-181.5 140.5t-118 221t-42 292zM283 678q0 -127 28.5 -228.5t80.5 -174t125 -111.5t163 -39t162.5 39
t125 111.5t81 174t28.5 228.5q0 125 -28.5 225.5t-81 170t-125 107.5t-162.5 38t-163 -38t-125 -107.5t-80.5 -170t-28.5 -225.5zM576 1446l180 229h192l-231 -229h-141z" />
    <glyph glyph-name="Ocircumflex" unicode="&#xd4;" horiz-adv-x="1359" 
d="M106 678q0 162 42 290t118 217t181.5 136t232.5 47t232.5 -48t182 -137t118.5 -217t42 -288q0 -162 -42 -292t-118.5 -221t-182 -140.5t-232.5 -49.5t-232.5 49.5t-181.5 140.5t-118 221t-42 292zM283 678q0 -127 28.5 -228.5t80.5 -174t125 -111.5t163 -39t162.5 39
t125 111.5t81 174t28.5 228.5q0 125 -28.5 225.5t-81 170t-125 107.5t-162.5 38t-163 -38t-125 -107.5t-80.5 -170t-28.5 -225.5zM401 1446l197 229h164l197 -229h-138l-137 139h-8l-137 -139h-138z" />
    <glyph glyph-name="Otilde" unicode="&#xd5;" horiz-adv-x="1359" 
d="M106 678q0 162 42 290t118 217t181.5 136t232.5 47t232.5 -48t182 -137t118.5 -217t42 -288q0 -162 -42 -292t-118.5 -221t-182 -140.5t-232.5 -49.5t-232.5 49.5t-181.5 140.5t-118 221t-42 292zM283 678q0 -127 28.5 -228.5t80.5 -174t125 -111.5t163 -39t162.5 39
t125 111.5t81 174t28.5 228.5q0 125 -28.5 225.5t-81 170t-125 107.5t-162.5 38t-163 -38t-125 -107.5t-80.5 -170t-28.5 -225.5zM383 1456q10 96 55 158.5t119 62.5q41 0 74 -16t60.5 -36.5t54 -37t55.5 -16.5t51.5 27.5t30.5 78.5h94q-10 -94 -55 -157.5t-119 -63.5
q-41 0 -74 16.5t-60.5 37t-54 37t-55.5 16.5t-51.5 -27t-30.5 -80h-94z" />
    <glyph glyph-name="Odieresis" unicode="&#xd6;" horiz-adv-x="1359" 
d="M106 678q0 162 42 290t118 217t181.5 136t232.5 47t232.5 -48t182 -137t118.5 -217t42 -288q0 -162 -42 -292t-118.5 -221t-182 -140.5t-232.5 -49.5t-232.5 49.5t-181.5 140.5t-118 221t-42 292zM283 678q0 -127 28.5 -228.5t80.5 -174t125 -111.5t163 -39t162.5 39
t125 111.5t81 174t28.5 228.5q0 125 -28.5 225.5t-81 170t-125 107.5t-162.5 38t-163 -38t-125 -107.5t-80.5 -170t-28.5 -225.5zM404 1565q0 45 27.5 72.5t72.5 27.5q43 0 71.5 -27.5t28.5 -72.5q0 -43 -28.5 -72t-71.5 -29q-45 0 -72.5 29t-27.5 72zM756 1565
q0 45 28.5 72.5t71.5 27.5q45 0 72.5 -27.5t27.5 -72.5q0 -43 -27.5 -72t-72.5 -29q-43 0 -71.5 29t-28.5 72z" />
    <glyph glyph-name="multiply" unicode="&#xd7;" 
d="M102 350l318 326l-318 323l91 93l317 -326l315 326l90 -93l-317 -323l317 -326l-90 -92l-315 328l-317 -328z" />
    <glyph glyph-name="Oslash" unicode="&#xd8;" horiz-adv-x="1359" 
d="M102 12l144 187q-66 90 -100.5 210.5t-34.5 268.5q0 162 42 290t118.5 217t182 136t232.5 47q213 0 358 -129l130 166l94 -72l-142 -184q63 -88 98.5 -206t35.5 -265q0 -162 -42 -292t-119 -221t-182.5 -140.5t-230.5 -49.5q-106 0 -197.5 34t-162.5 100l-129 -170z
M287 678q0 -197 69 -336l590 766q-104 111 -260 111q-90 0 -163.5 -38t-126 -107.5t-81 -170t-28.5 -225.5zM426 238q51 -53 116.5 -83t143.5 -30q90 0 163 39t125 111.5t80.5 174t28.5 228.5q0 98 -17 180t-50 148z" />
    <glyph glyph-name="Ugrave" unicode="&#xd9;" horiz-adv-x="1320" 
d="M178 555v788h170v-792q0 -121 24.5 -203t66.5 -131t99.5 -70.5t123.5 -21.5q68 0 125 21.5t100 70.5t67.5 131t24.5 203v792h164v-788q0 -162 -37 -272.5t-101.5 -179t-152.5 -98.5t-190 -30t-191.5 30t-154 98.5t-101.5 179t-37 272.5zM391 1675h192l180 -229h-141z" />
    <glyph glyph-name="Uacute" unicode="&#xda;" horiz-adv-x="1320" 
d="M178 555v788h170v-792q0 -121 24.5 -203t66.5 -131t99.5 -70.5t123.5 -21.5q68 0 125 21.5t100 70.5t67.5 131t24.5 203v792h164v-788q0 -162 -37 -272.5t-101.5 -179t-152.5 -98.5t-190 -30t-191.5 30t-154 98.5t-101.5 179t-37 272.5zM555 1446l180 229h192l-231 -229
h-141z" />
    <glyph glyph-name="Ucircumflex" unicode="&#xdb;" horiz-adv-x="1320" 
d="M178 555v788h170v-792q0 -121 24.5 -203t66.5 -131t99.5 -70.5t123.5 -21.5q68 0 125 21.5t100 70.5t67.5 131t24.5 203v792h164v-788q0 -162 -37 -272.5t-101.5 -179t-152.5 -98.5t-190 -30t-191.5 30t-154 98.5t-101.5 179t-37 272.5zM380 1446l197 229h164l197 -229
h-138l-137 139h-8l-137 -139h-138z" />
    <glyph glyph-name="Udieresis" unicode="&#xdc;" horiz-adv-x="1320" 
d="M178 555v788h170v-792q0 -121 24.5 -203t66.5 -131t99.5 -70.5t123.5 -21.5q68 0 125 21.5t100 70.5t67.5 131t24.5 203v792h164v-788q0 -162 -37 -272.5t-101.5 -179t-152.5 -98.5t-190 -30t-191.5 30t-154 98.5t-101.5 179t-37 272.5zM383 1565q0 45 27.5 72.5
t72.5 27.5q43 0 71.5 -27.5t28.5 -72.5q0 -43 -28.5 -72t-71.5 -29q-45 0 -72.5 29t-27.5 72zM735 1565q0 45 28.5 72.5t71.5 27.5q45 0 72.5 -27.5t27.5 -72.5q0 -43 -27.5 -72t-72.5 -29q-43 0 -71.5 29t-28.5 72z" />
    <glyph glyph-name="Yacute" unicode="&#xdd;" horiz-adv-x="974" 
d="M-2 1343h182l174 -378q33 -74 64 -145.5t65 -147.5h9q35 76 69.5 147.5t65.5 145.5l172 378h178l-404 -823v-520h-172v520zM383 1446l180 229h192l-231 -229h-141z" />
    <glyph glyph-name="Thorn" unicode="&#xde;" horiz-adv-x="1193" 
d="M184 0v1343h170v-225h242q111 0 203 -20.5t156.5 -67.5t100.5 -121.5t36 -185.5q0 -106 -36 -185t-101.5 -130.5t-156.5 -76t-202 -24.5h-242v-307h-170zM354 446h221q176 0 261.5 66t85.5 211t-86 200.5t-261 55.5h-221v-533z" />
    <glyph glyph-name="germandbls" unicode="&#xdf;" horiz-adv-x="1179" 
d="M168 0v1055q0 193 104.5 308.5t296.5 115.5q80 0 142.5 -23.5t105.5 -64.5t64.5 -95.5t21.5 -115.5q0 -78 -28.5 -132.5t-64.5 -99.5t-64.5 -87t-28.5 -95q0 -49 29.5 -82t74.5 -58.5t97.5 -52t97.5 -63.5t74.5 -92.5t29.5 -136.5q0 -66 -22.5 -121.5t-65.5 -96
t-103.5 -64.5t-135.5 -24q-86 0 -156 27t-133 74l67 119q53 -45 105.5 -67t111.5 -22q86 0 129.5 49.5t43.5 114.5q0 59 -30 98.5t-75 68t-97 54t-97.5 58.5t-75 79t-29.5 117q0 70 27.5 119t61.5 94.5t62.5 92.5t28.5 112q0 78 -42 128t-128 50q-111 0 -171 -78.5
t-60 -238.5v-1024h-168z" />
    <glyph glyph-name="agrave" unicode="&#xe0;" horiz-adv-x="1048" 
d="M119 258q0 164 146.5 251t465.5 122q0 47 -9 92t-32.5 80t-62.5 56.5t-101 21.5q-88 0 -162.5 -33t-134.5 -74l-67 117q70 45 170 87t221 42q182 0 264 -111.5t82 -298.5v-610h-139l-15 119h-4q-72 -59 -154.5 -101.5t-174.5 -42.5q-127 0 -210 74t-83 209zM285 270
q0 -86 50 -122.5t124 -36.5q72 0 136 33.5t136 99.5v276q-125 -16 -211 -38.5t-138 -53.5t-74.5 -71t-22.5 -87zM324 1462h176l184 -288h-129z" />
    <glyph glyph-name="aacute" unicode="&#xe1;" horiz-adv-x="1048" 
d="M119 258q0 164 146.5 251t465.5 122q0 47 -9 92t-32.5 80t-62.5 56.5t-101 21.5q-88 0 -162.5 -33t-134.5 -74l-67 117q70 45 170 87t221 42q182 0 264 -111.5t82 -298.5v-610h-139l-15 119h-4q-72 -59 -154.5 -101.5t-174.5 -42.5q-127 0 -210 74t-83 209zM285 270
q0 -86 50 -122.5t124 -36.5q72 0 136 33.5t136 99.5v276q-125 -16 -211 -38.5t-138 -53.5t-74.5 -71t-22.5 -87zM418 1174l184 288h176l-231 -288h-129z" />
    <glyph glyph-name="acircumflex" unicode="&#xe2;" horiz-adv-x="1048" 
d="M119 258q0 164 146.5 251t465.5 122q0 47 -9 92t-32.5 80t-62.5 56.5t-101 21.5q-88 0 -162.5 -33t-134.5 -74l-67 117q70 45 170 87t221 42q182 0 264 -111.5t82 -298.5v-610h-139l-15 119h-4q-72 -59 -154.5 -101.5t-174.5 -42.5q-127 0 -210 74t-83 209zM285 270
q0 -86 50 -122.5t124 -36.5q72 0 136 33.5t136 99.5v276q-125 -16 -211 -38.5t-138 -53.5t-74.5 -71t-22.5 -87zM287 1174l194 288h140l194 -288h-123l-137 186h-8l-137 -186h-123z" />
    <glyph glyph-name="atilde" unicode="&#xe3;" horiz-adv-x="1048" 
d="M119 258q0 164 146.5 251t465.5 122q0 47 -9 92t-32.5 80t-62.5 56.5t-101 21.5q-88 0 -162.5 -33t-134.5 -74l-67 117q70 45 170 87t221 42q182 0 264 -111.5t82 -298.5v-610h-139l-15 119h-4q-72 -59 -154.5 -101.5t-174.5 -42.5q-127 0 -210 74t-83 209zM266 1186
q8 92 49 154.5t117 62.5q39 0 72 -16.5t60.5 -36t52 -36t49.5 -16.5q57 0 75 105h95q-8 -92 -49 -154.5t-117 -62.5q-39 0 -71 16.5t-59.5 35.5t-52 35.5t-51.5 16.5q-57 0 -75 -104h-95zM285 270q0 -86 50 -122.5t124 -36.5q72 0 136 33.5t136 99.5v276
q-125 -16 -211 -38.5t-138 -53.5t-74.5 -71t-22.5 -87z" />
    <glyph glyph-name="adieresis" unicode="&#xe4;" horiz-adv-x="1048" 
d="M119 258q0 164 146.5 251t465.5 122q0 47 -9 92t-32.5 80t-62.5 56.5t-101 21.5q-88 0 -162.5 -33t-134.5 -74l-67 117q70 45 170 87t221 42q182 0 264 -111.5t82 -298.5v-610h-139l-15 119h-4q-72 -59 -154.5 -101.5t-174.5 -42.5q-127 0 -210 74t-83 209zM275 1305
q0 43 27.5 71.5t72.5 28.5q43 0 71.5 -28.5t28.5 -71.5t-28.5 -72t-71.5 -29q-45 0 -72.5 29t-27.5 72zM285 270q0 -86 50 -122.5t124 -36.5q72 0 136 33.5t136 99.5v276q-125 -16 -211 -38.5t-138 -53.5t-74.5 -71t-22.5 -87zM627 1305q0 43 28.5 71.5t71.5 28.5
q45 0 72.5 -28.5t27.5 -71.5t-27.5 -72t-72.5 -29q-43 0 -71.5 29t-28.5 72z" />
    <glyph glyph-name="aring" unicode="&#xe5;" horiz-adv-x="1048" 
d="M119 258q0 164 146.5 251t465.5 122q0 47 -9 92t-32.5 80t-62.5 56.5t-101 21.5q-88 0 -162.5 -33t-134.5 -74l-67 117q70 45 170 87t221 42q182 0 264 -111.5t82 -298.5v-610h-139l-15 119h-4q-72 -59 -154.5 -101.5t-174.5 -42.5q-127 0 -210 74t-83 209zM285 270
q0 -86 50 -122.5t124 -36.5q72 0 136 33.5t136 99.5v276q-125 -16 -211 -38.5t-138 -53.5t-74.5 -71t-22.5 -87zM361 1300q0 86 53 137.5t137 51.5t137 -51.5t53 -137.5t-53 -138t-137 -52t-137 52t-53 138zM453 1300q0 -53 28.5 -83.5t69.5 -30.5t69.5 30.5t28.5 83.5
q0 51 -28.5 82t-69.5 31t-69.5 -30.5t-28.5 -82.5z" />
    <glyph glyph-name="ae" unicode="&#xe6;" horiz-adv-x="1607" 
d="M119 258q0 164 145.5 251t456.5 122q0 47 -8 92t-32 80t-62.5 56.5t-100.5 21.5q-82 0 -155.5 -33t-133.5 -74l-67 117q70 45 168 87t209 42t182.5 -56.5t101.5 -154.5q59 98 142.5 154.5t185.5 56.5q92 0 162.5 -33t119 -94.5t73 -148.5t24.5 -193q0 -57 -6 -94h-645
q2 -78 27.5 -141.5t66.5 -108.5t96 -69.5t119 -24.5q72 0 129 23.5t113 58.5l61 -117q-66 -41 -143.5 -72t-180.5 -31q-125 0 -209 56.5t-141 130.5q-102 -92 -205.5 -139.5t-199.5 -47.5q-127 0 -210 74t-83 209zM285 270q0 -86 50 -122.5t124 -36.5q70 0 151.5 39.5
t149.5 113.5q-16 39 -26.5 93.5t-12.5 111.5v51q-119 -16 -202 -38.5t-135 -53.5t-75.5 -71t-23.5 -87zM879 569h503q0 154 -60 236t-175 82q-104 0 -179 -85t-89 -233z" />
    <glyph glyph-name="ccedilla" unicode="&#xe7;" horiz-adv-x="933" 
d="M94 496q0 125 39 222t104.5 164.5t152.5 102.5t183 35q98 0 169 -36t122 -83l-84 -108q-45 39 -93 63.5t-107 24.5q-68 0 -125.5 -28t-98.5 -79t-64.5 -121.5t-23.5 -156.5t22.5 -156t62.5 -120t97.5 -77.5t124.5 -27.5q72 0 130.5 29.5t103.5 70.5l76 -111
q-68 -59 -151 -94t-173 -35q-98 0 -184 35t-148.5 101.5t-98.5 164t-36 220.5zM383 -352q82 10 132 33.5t50 64.5t-33.5 62.5t-95.5 37.5l82 160h109l-52 -108q49 -16 85 -49t36 -97q0 -45 -24.5 -77.5t-65.5 -55t-95 -36t-112 -19.5z" />
    <glyph glyph-name="egrave" unicode="&#xe8;" horiz-adv-x="1015" 
d="M94 496q0 123 38 220t100.5 164.5t142.5 103.5t166 36q94 0 168.5 -33t125 -94.5t77 -147.5t26.5 -192q0 -55 -6 -92h-672q10 -162 99.5 -256t232.5 -94q72 0 132 21.5t116 55.5l59 -110q-66 -41 -145.5 -72t-182.5 -31q-100 0 -187 36t-151.5 102.5t-101.5 163
t-37 219.5zM258 571h533q0 154 -64.5 235t-181.5 81q-53 0 -101.5 -21.5t-87.5 -61.5t-64.5 -98.5t-33.5 -134.5zM316 1462h176l184 -288h-129z" />
    <glyph glyph-name="eacute" unicode="&#xe9;" horiz-adv-x="1015" 
d="M94 496q0 123 38 220t100.5 164.5t142.5 103.5t166 36q94 0 168.5 -33t125 -94.5t77 -147.5t26.5 -192q0 -55 -6 -92h-672q10 -162 99.5 -256t232.5 -94q72 0 132 21.5t116 55.5l59 -110q-66 -41 -145.5 -72t-182.5 -31q-100 0 -187 36t-151.5 102.5t-101.5 163
t-37 219.5zM258 571h533q0 154 -64.5 235t-181.5 81q-53 0 -101.5 -21.5t-87.5 -61.5t-64.5 -98.5t-33.5 -134.5zM410 1174l184 288h176l-231 -288h-129z" />
    <glyph glyph-name="ecircumflex" unicode="&#xea;" horiz-adv-x="1015" 
d="M94 496q0 123 38 220t100.5 164.5t142.5 103.5t166 36q94 0 168.5 -33t125 -94.5t77 -147.5t26.5 -192q0 -55 -6 -92h-672q10 -162 99.5 -256t232.5 -94q72 0 132 21.5t116 55.5l59 -110q-66 -41 -145.5 -72t-182.5 -31q-100 0 -187 36t-151.5 102.5t-101.5 163
t-37 219.5zM258 571h533q0 154 -64.5 235t-181.5 81q-53 0 -101.5 -21.5t-87.5 -61.5t-64.5 -98.5t-33.5 -134.5zM279 1174l194 288h140l194 -288h-123l-137 186h-8l-137 -186h-123z" />
    <glyph glyph-name="edieresis" unicode="&#xeb;" horiz-adv-x="1015" 
d="M94 496q0 123 38 220t100.5 164.5t142.5 103.5t166 36q94 0 168.5 -33t125 -94.5t77 -147.5t26.5 -192q0 -55 -6 -92h-672q10 -162 99.5 -256t232.5 -94q72 0 132 21.5t116 55.5l59 -110q-66 -41 -145.5 -72t-182.5 -31q-100 0 -187 36t-151.5 102.5t-101.5 163
t-37 219.5zM258 571h533q0 154 -64.5 235t-181.5 81q-53 0 -101.5 -21.5t-87.5 -61.5t-64.5 -98.5t-33.5 -134.5zM267 1305q0 43 27.5 71.5t72.5 28.5q43 0 71.5 -28.5t28.5 -71.5t-28.5 -72t-71.5 -29q-45 0 -72.5 29t-27.5 72zM619 1305q0 43 28.5 71.5t71.5 28.5
q45 0 72.5 -28.5t27.5 -71.5t-27.5 -72t-72.5 -29q-43 0 -71.5 29t-28.5 72z" />
    <glyph glyph-name="igrave" unicode="&#xec;" horiz-adv-x="503" 
d="M25 1462h176l184 -288h-129zM168 0v995h168v-995h-168z" />
    <glyph glyph-name="iacute" unicode="&#xed;" horiz-adv-x="503" 
d="M119 1174l184 288h176l-231 -288h-129zM168 0v995h168v-995h-168z" />
    <glyph glyph-name="icircumflex" unicode="&#xee;" horiz-adv-x="503" 
d="M-12 1174l194 288h140l194 -288h-123l-137 186h-8l-137 -186h-123zM168 0v995h168v-995h-168z" />
    <glyph glyph-name="idieresis" unicode="&#xef;" horiz-adv-x="503" 
d="M-24 1305q0 43 27.5 71.5t72.5 28.5q43 0 71.5 -28.5t28.5 -71.5t-28.5 -72t-71.5 -29q-45 0 -72.5 29t-27.5 72zM168 0v995h168v-995h-168zM328 1305q0 43 28.5 71.5t71.5 28.5q45 0 72.5 -28.5t27.5 -71.5t-27.5 -72t-72.5 -29q-43 0 -71.5 29t-28.5 72z" />
    <glyph glyph-name="eth" unicode="&#xf0;" horiz-adv-x="1116" 
d="M109 455q0 104 32.5 189t89 145.5t133 93t166.5 32.5q78 0 150 -32.5t125 -102.5q-29 127 -85 221.5t-134 172.5l-289 -150l-49 84l260 133q-106 82 -229 148l77 106q74 -41 145.5 -86t137.5 -100l291 149l49 -84l-264 -135q123 -125 200.5 -297t77.5 -416
q0 -123 -31.5 -224t-90 -174t-139.5 -113t-181 -40q-86 0 -166 33t-141.5 95.5t-98 151.5t-36.5 200zM268 455q0 -78 22.5 -140.5t62.5 -106.5t91.5 -68.5t110.5 -24.5q70 0 121 29.5t86 83t52 128t17 164.5q0 29 -1 57.5t-3 55.5q-68 90 -135 120.5t-137 30.5
q-68 0 -121 -24.5t-90 -69.5t-56.5 -105.5t-19.5 -129.5z" />
    <glyph glyph-name="ntilde" unicode="&#xf1;" horiz-adv-x="1120" 
d="M168 0v995h139l15 -143h6q72 72 150.5 120t183.5 48q158 0 230.5 -98.5t72.5 -290.5v-631h-168v608q0 141 -45 203.5t-144 62.5q-78 0 -137 -38.5t-135 -114.5v-721h-168zM313 1186q8 92 49 154.5t117 62.5q39 0 72 -16.5t60.5 -36t52 -36t49.5 -16.5q57 0 75 105h95
q-8 -92 -49 -154.5t-117 -62.5q-39 0 -71 16.5t-59.5 35.5t-52 35.5t-51.5 16.5q-57 0 -75 -104h-95z" />
    <glyph glyph-name="ograve" unicode="&#xf2;" horiz-adv-x="1110" 
d="M94 496q0 125 38 222t101.5 164.5t146.5 102.5t175 35t175 -35t146.5 -102.5t101.5 -164.5t38 -222q0 -123 -38 -220.5t-101.5 -164t-146.5 -101.5t-175 -35t-175 35t-146.5 101.5t-101.5 164t-38 220.5zM268 496q0 -86 20.5 -156t58.5 -120t91.5 -77.5t116.5 -27.5
t116.5 27.5t91.5 77.5t58.5 120t20.5 156t-20.5 156.5t-58.5 121.5t-91.5 79t-116.5 28t-116.5 -28t-91.5 -79t-58.5 -121.5t-20.5 -156.5zM328 1462h176l184 -288h-129z" />
    <glyph glyph-name="oacute" unicode="&#xf3;" horiz-adv-x="1110" 
d="M94 496q0 125 38 222t101.5 164.5t146.5 102.5t175 35t175 -35t146.5 -102.5t101.5 -164.5t38 -222q0 -123 -38 -220.5t-101.5 -164t-146.5 -101.5t-175 -35t-175 35t-146.5 101.5t-101.5 164t-38 220.5zM268 496q0 -86 20.5 -156t58.5 -120t91.5 -77.5t116.5 -27.5
t116.5 27.5t91.5 77.5t58.5 120t20.5 156t-20.5 156.5t-58.5 121.5t-91.5 79t-116.5 28t-116.5 -28t-91.5 -79t-58.5 -121.5t-20.5 -156.5zM422 1174l184 288h176l-231 -288h-129z" />
    <glyph glyph-name="ocircumflex" unicode="&#xf4;" horiz-adv-x="1110" 
d="M94 496q0 125 38 222t101.5 164.5t146.5 102.5t175 35t175 -35t146.5 -102.5t101.5 -164.5t38 -222q0 -123 -38 -220.5t-101.5 -164t-146.5 -101.5t-175 -35t-175 35t-146.5 101.5t-101.5 164t-38 220.5zM268 496q0 -86 20.5 -156t58.5 -120t91.5 -77.5t116.5 -27.5
t116.5 27.5t91.5 77.5t58.5 120t20.5 156t-20.5 156.5t-58.5 121.5t-91.5 79t-116.5 28t-116.5 -28t-91.5 -79t-58.5 -121.5t-20.5 -156.5zM291 1174l194 288h140l194 -288h-123l-137 186h-8l-137 -186h-123z" />
    <glyph glyph-name="otilde" unicode="&#xf5;" horiz-adv-x="1110" 
d="M94 496q0 125 38 222t101.5 164.5t146.5 102.5t175 35t175 -35t146.5 -102.5t101.5 -164.5t38 -222q0 -123 -38 -220.5t-101.5 -164t-146.5 -101.5t-175 -35t-175 35t-146.5 101.5t-101.5 164t-38 220.5zM268 496q0 -86 20.5 -156t58.5 -120t91.5 -77.5t116.5 -27.5
t116.5 27.5t91.5 77.5t58.5 120t20.5 156t-20.5 156.5t-58.5 121.5t-91.5 79t-116.5 28t-116.5 -28t-91.5 -79t-58.5 -121.5t-20.5 -156.5zM270 1186q8 92 49 154.5t117 62.5q39 0 72 -16.5t60.5 -36t52 -36t49.5 -16.5q57 0 75 105h95q-8 -92 -49 -154.5t-117 -62.5
q-39 0 -71 16.5t-59.5 35.5t-52 35.5t-51.5 16.5q-57 0 -75 -104h-95z" />
    <glyph glyph-name="odieresis" unicode="&#xf6;" horiz-adv-x="1110" 
d="M94 496q0 125 38 222t101.5 164.5t146.5 102.5t175 35t175 -35t146.5 -102.5t101.5 -164.5t38 -222q0 -123 -38 -220.5t-101.5 -164t-146.5 -101.5t-175 -35t-175 35t-146.5 101.5t-101.5 164t-38 220.5zM268 496q0 -86 20.5 -156t58.5 -120t91.5 -77.5t116.5 -27.5
t116.5 27.5t91.5 77.5t58.5 120t20.5 156t-20.5 156.5t-58.5 121.5t-91.5 79t-116.5 28t-116.5 -28t-91.5 -79t-58.5 -121.5t-20.5 -156.5zM279 1305q0 43 27.5 71.5t72.5 28.5q43 0 71.5 -28.5t28.5 -71.5t-28.5 -72t-71.5 -29q-45 0 -72.5 29t-27.5 72zM631 1305
q0 43 28.5 71.5t71.5 28.5q45 0 72.5 -28.5t27.5 -71.5t-27.5 -72t-72.5 -29q-43 0 -71.5 29t-28.5 72z" />
    <glyph glyph-name="divide" unicode="&#xf7;" 
d="M70 612v127h878v-127h-878zM397 307q0 47 33 78t80 31t79 -31t32 -78q0 -49 -32 -79.5t-79 -30.5t-80 30.5t-33 79.5zM397 1044q0 47 33 78t80 31t79 -30.5t32 -78.5q0 -49 -32 -79.5t-79 -30.5t-80 30.5t-33 79.5z" />
    <glyph glyph-name="oslash" unicode="&#xf8;" horiz-adv-x="1110" 
d="M94 12l111 133q-51 66 -81 153t-30 198q0 125 38 222t101.5 164.5t146.5 102.5t175 35q78 0 151.5 -25.5t133.5 -76.5l102 124l74 -59l-111 -133q51 -66 81 -155t30 -199q0 -123 -38 -220.5t-101.5 -164t-146.5 -101.5t-175 -35q-162 0 -285 101l-100 -123zM260 504
q0 -137 47 -232l438 531q-76 82 -190 82q-63 0 -117.5 -28t-93.5 -78t-61.5 -120.5t-22.5 -154.5zM365 190q80 -80 190 -79q63 0 117.5 27.5t94.5 77.5t61.5 120t21.5 153q0 137 -49 234z" />
    <glyph glyph-name="ugrave" unicode="&#xf9;" horiz-adv-x="1114" 
d="M154 365v630h170v-608q0 -141 44 -203.5t142 -62.5q78 0 137.5 40t130.5 128v706h168v-995h-139l-14 156h-7q-70 -82 -146.5 -131.5t-180.5 -49.5q-160 0 -232.5 98.5t-72.5 291.5zM330 1462h176l184 -288h-129z" />
    <glyph glyph-name="uacute" unicode="&#xfa;" horiz-adv-x="1114" 
d="M154 365v630h170v-608q0 -141 44 -203.5t142 -62.5q78 0 137.5 40t130.5 128v706h168v-995h-139l-14 156h-7q-70 -82 -146.5 -131.5t-180.5 -49.5q-160 0 -232.5 98.5t-72.5 291.5zM424 1174l184 288h176l-231 -288h-129z" />
    <glyph glyph-name="ucircumflex" unicode="&#xfb;" horiz-adv-x="1114" 
d="M154 365v630h170v-608q0 -141 44 -203.5t142 -62.5q78 0 137.5 40t130.5 128v706h168v-995h-139l-14 156h-7q-70 -82 -146.5 -131.5t-180.5 -49.5q-160 0 -232.5 98.5t-72.5 291.5zM293 1174l194 288h140l194 -288h-123l-137 186h-8l-137 -186h-123z" />
    <glyph glyph-name="udieresis" unicode="&#xfc;" horiz-adv-x="1114" 
d="M154 365v630h170v-608q0 -141 44 -203.5t142 -62.5q78 0 137.5 40t130.5 128v706h168v-995h-139l-14 156h-7q-70 -82 -146.5 -131.5t-180.5 -49.5q-160 0 -232.5 98.5t-72.5 291.5zM281 1305q0 43 27.5 71.5t72.5 28.5q43 0 71.5 -28.5t28.5 -71.5t-28.5 -72t-71.5 -29
q-45 0 -72.5 29t-27.5 72zM633 1305q0 43 28.5 71.5t71.5 28.5q45 0 72.5 -28.5t27.5 -71.5t-27.5 -72t-72.5 -29q-43 0 -71.5 29t-28.5 72z" />
    <glyph glyph-name="yacute" unicode="&#xfd;" horiz-adv-x="956" 
d="M25 995h174l202 -551q23 -66 48.5 -138.5t48.5 -141.5h8q23 68 43 141.5t41 138.5l178 551h164l-375 -1077q-27 -74 -59.5 -137.5t-77.5 -109.5t-102.5 -72.5t-133.5 -26.5q-35 0 -63.5 5t-52.5 15l32 134q16 -4 37 -9.5t39 -5.5q86 0 140.5 60.5t84.5 152.5l23 74z
M363 1174l184 288h176l-231 -288h-129z" />
    <glyph glyph-name="thorn" unicode="&#xfe;" horiz-adv-x="1136" 
d="M168 -420v1878h168v-397l-2 -170q66 53 143.5 91t159.5 38q98 0 173 -36t126 -102.5t76.5 -159.5t25.5 -210q0 -127 -34.5 -226.5t-94 -169t-137.5 -105.5t-164 -36q-72 0 -139.5 29t-134.5 82l2 -170v-336h-168zM336 221q68 -57 131 -80.5t113 -23.5q61 0 113 27.5
t90 77.5t59.5 124t21.5 166q0 82 -14 149.5t-46 115.5t-82 75t-120 27q-63 0 -127.5 -35t-138.5 -101v-522z" />
    <glyph glyph-name="ydieresis" unicode="&#xff;" horiz-adv-x="956" 
d="M25 995h174l202 -551q23 -66 48.5 -138.5t48.5 -141.5h8q23 68 43 141.5t41 138.5l178 551h164l-375 -1077q-27 -74 -59.5 -137.5t-77.5 -109.5t-102.5 -72.5t-133.5 -26.5q-35 0 -63.5 5t-52.5 15l32 134q16 -4 37 -9.5t39 -5.5q86 0 140.5 60.5t84.5 152.5l23 74z
M220 1305q0 43 27.5 71.5t72.5 28.5q43 0 71.5 -28.5t28.5 -71.5t-28.5 -72t-71.5 -29q-45 0 -72.5 29t-27.5 72zM572 1305q0 43 28.5 71.5t71.5 28.5q45 0 72.5 -28.5t27.5 -71.5t-27.5 -72t-72.5 -29q-43 0 -71.5 29t-28.5 72z" />
    <glyph glyph-name="OE" unicode="&#x152;" horiz-adv-x="1734" 
d="M106 678q0 322 172.5 493.5t485.5 171.5h850v-143h-570v-422h476v-145h-476v-488h590v-145h-878q-154 0 -274 46t-203.5 133t-128 213t-44.5 286zM283 678q0 -258 124.5 -398.5t368.5 -140.5h98v1065h-98q-244 0 -368.5 -135t-124.5 -391z" />
    <glyph glyph-name="oe" unicode="&#x153;" horiz-adv-x="1718" 
d="M94 496q0 125 37 222t98.5 164.5t143.5 102.5t172 35q115 0 211 -63.5t149 -186.5q57 117 148.5 183.5t201.5 66.5q92 0 164 -33t121 -94.5t74.5 -148.5t25.5 -193q0 -57 -6 -94h-653q2 -78 27.5 -141.5t67.5 -108.5t98.5 -69.5t119.5 -24.5q72 0 131.5 23.5t114.5 58.5
l62 -117q-66 -41 -146 -72t-182 -31q-117 0 -213 65.5t-154 182.5q-117 -248 -366 -248q-90 0 -171 35t-142.5 101.5t-97.5 164t-36 220.5zM266 496q0 -86 20.5 -156t57.5 -120t88 -77.5t113 -27.5q61 0 112.5 27.5t88 77.5t57 120t20.5 156t-20.5 156.5t-57 121.5t-88 79
t-112.5 28t-112.5 -28t-88.5 -79t-57.5 -121.5t-20.5 -156.5zM981 569h512q0 154 -63.5 236t-178.5 82q-104 0 -180 -85t-90 -233z" />
    <glyph glyph-name="Ydieresis" unicode="&#x178;" horiz-adv-x="974" 
d="M-2 1343h182l174 -378q33 -74 64 -145.5t65 -147.5h9q35 76 69.5 147.5t65.5 145.5l172 378h178l-404 -823v-520h-172v520zM211 1565q0 45 27.5 72.5t72.5 27.5q43 0 71.5 -27.5t28.5 -72.5q0 -43 -28.5 -72t-71.5 -29q-45 0 -72.5 29t-27.5 72zM563 1565q0 45 28.5 72.5
t71.5 27.5q45 0 72.5 -27.5t27.5 -72.5q0 -43 -27.5 -72t-72.5 -29q-43 0 -71.5 29t-28.5 72z" />
    <glyph glyph-name="circumflex" unicode="&#x2c6;" horiz-adv-x="1110" 
d="M291 1174l194 288h140l194 -288h-123l-137 186h-8l-137 -186h-123z" />
    <glyph glyph-name="tilde" unicode="&#x2dc;" horiz-adv-x="1110" 
d="M270 1186q8 92 49 154.5t117 62.5q39 0 72 -16.5t60.5 -36t52 -36t49.5 -16.5q57 0 75 105h95q-8 -92 -49 -154.5t-117 -62.5q-39 0 -71 16.5t-59.5 35.5t-52 35.5t-51.5 16.5q-57 0 -75 -104h-95z" />
    <glyph glyph-name="uni2000" unicode="&#x2000;" horiz-adv-x="896" 
 />
    <glyph glyph-name="uni2001" unicode="&#x2001;" horiz-adv-x="1792" 
 />
    <glyph glyph-name="uni2002" unicode="&#x2002;" horiz-adv-x="896" 
 />
    <glyph glyph-name="uni2003" unicode="&#x2003;" horiz-adv-x="1792" 
 />
    <glyph glyph-name="uni2004" unicode="&#x2004;" horiz-adv-x="597" 
 />
    <glyph glyph-name="uni2005" unicode="&#x2005;" horiz-adv-x="448" 
 />
    <glyph glyph-name="uni2006" unicode="&#x2006;" horiz-adv-x="298" 
 />
    <glyph glyph-name="uni2007" unicode="&#x2007;" horiz-adv-x="298" 
 />
    <glyph glyph-name="uni2008" unicode="&#x2008;" horiz-adv-x="224" 
 />
    <glyph glyph-name="uni2009" unicode="&#x2009;" horiz-adv-x="358" 
 />
    <glyph glyph-name="uni200A" unicode="&#x200a;" horiz-adv-x="99" 
 />
    <glyph glyph-name="uni2010" unicode="&#x2010;" horiz-adv-x="636" 
d="M84 449v129h471v-129h-471z" />
    <glyph glyph-name="uni2011" unicode="&#x2011;" horiz-adv-x="636" 
d="M84 449v129h471v-129h-471z" />
    <glyph glyph-name="figuredash" unicode="&#x2012;" horiz-adv-x="636" 
d="M84 449v129h471v-129h-471z" />
    <glyph glyph-name="endash" unicode="&#x2013;" horiz-adv-x="983" 
d="M84 457v116h815v-116h-815z" />
    <glyph glyph-name="emdash" unicode="&#x2014;" horiz-adv-x="1638" 
d="M84 457v116h1470v-116h-1470z" />
    <glyph glyph-name="quoteleft" unicode="&#x2018;" horiz-adv-x="509" 
d="M117 1061q0 123 55 213t162 151l49 -79q-78 -51 -117 -108.5t-39 -145.5q6 2 19 2q41 0 74.5 -27t33.5 -78q0 -53 -30.5 -82.5t-77.5 -29.5q-61 0 -95 47t-34 137z" />
    <glyph glyph-name="quoteright" unicode="&#x2019;" horiz-adv-x="509" 
d="M129 961q78 51 116 108t38 148q-6 -2 -17 -3q-43 0 -75.5 27t-32.5 76q0 53 30.5 84t77.5 31q59 0 94 -48.5t35 -138.5q0 -123 -56 -212t-163 -150z" />
    <glyph glyph-name="quotesinglbase" unicode="&#x201a;" horiz-adv-x="509" 
d="M129 -217q78 51 116 108t38 148q-6 -2 -17 -3q-43 0 -75.5 27t-32.5 76q0 53 30.5 84t77.5 31q59 0 94 -48.5t35 -138.5q0 -123 -56 -212t-163 -150z" />
    <glyph glyph-name="quotedblleft" unicode="&#x201c;" horiz-adv-x="870" 
d="M117 1061q0 123 55 213t162 151l49 -79q-78 -51 -117 -108.5t-39 -145.5q6 2 19 2q41 0 74.5 -27t33.5 -78q0 -53 -30.5 -82.5t-77.5 -29.5q-61 0 -95 47t-34 137zM477 1061q0 123 55 213t162 151l49 -79q-78 -51 -117 -108.5t-39 -145.5q6 2 19 2q41 0 74.5 -27
t33.5 -78q0 -53 -30.5 -82.5t-77.5 -29.5q-61 0 -95 47t-34 137z" />
    <glyph glyph-name="quotedblright" unicode="&#x201d;" horiz-adv-x="870" 
d="M129 961q78 51 116 108t38 148q-6 -2 -17 -3q-43 0 -75.5 27t-32.5 76q0 53 30.5 84t77.5 31q59 0 94 -48.5t35 -138.5q0 -123 -56 -212t-163 -150zM489 961q78 51 116 108t38 148q-6 -2 -17 -3q-43 0 -75.5 27t-32.5 76q0 53 30.5 84t77.5 31q59 0 94 -48.5t35 -138.5
q0 -123 -56 -212t-163 -150z" />
    <glyph glyph-name="quotedblbase" unicode="&#x201e;" horiz-adv-x="870" 
d="M129 -217q78 51 116 108t38 148q-6 -2 -17 -3q-43 0 -75.5 27t-32.5 76q0 53 30.5 84t77.5 31q59 0 94 -48.5t35 -138.5q0 -123 -56 -212t-163 -150zM489 -217q78 51 116 108t38 148q-6 -2 -17 -3q-43 0 -75.5 27t-32.5 76q0 53 30.5 84t77.5 31q59 0 94 -48.5t35 -138.5
q0 -123 -56 -212t-163 -150z" />
    <glyph glyph-name="bullet" unicode="&#x2022;" horiz-adv-x="622" 
d="M82 539q0 55 18.5 101t50 78t72.5 50t88 18q45 0 87 -18t74 -50t50.5 -78t18.5 -101t-18.5 -100.5t-50.5 -78t-74 -50t-87 -17.5q-47 0 -88 17.5t-72.5 50t-50 77.5t-18.5 101z" />
    <glyph glyph-name="ellipsis" unicode="&#x2026;" horiz-adv-x="1941" 
d="M192 102q0 59 36 95t87 36q49 0 85 -35.5t36 -95.5q0 -55 -36 -91t-85 -36q-51 0 -87 36t-36 91zM878 102q0 59 36 95t87 36q49 0 85 -35.5t36 -95.5q0 -55 -36 -91t-85 -36q-51 0 -87 36t-36 91zM1565 102q0 59 36 95t87 36q49 0 85 -35.5t36 -95.5q0 -55 -36 -91
t-85 -36q-51 0 -87 36t-36 91z" />
    <glyph glyph-name="uni202F" unicode="&#x202f;" horiz-adv-x="358" 
 />
    <glyph glyph-name="guilsinglleft" unicode="&#x2039;" horiz-adv-x="555" 
d="M92 453v127l279 317l73 -61l-241 -320l241 -323l-73 -58z" />
    <glyph glyph-name="guilsinglright" unicode="&#x203a;" horiz-adv-x="555" 
d="M111 193l241 323l-241 320l71 61l281 -317v-127l-281 -318z" />
    <glyph glyph-name="uni205F" unicode="&#x205f;" horiz-adv-x="448" 
 />
    <glyph glyph-name="Euro" unicode="&#x20ac;" 
d="M47 481v88l121 9q-2 18 -2 36.5v36.5v32.5t2 33.5h-121v90l131 10q18 121 61.5 216t108 162t149.5 101.5t185 34.5q92 0 172 -46t133 -114l-100 -96q-43 53 -94.5 87t-116.5 34q-135 0 -218 -100.5t-108 -278.5h520v-100h-528q-2 -14 -2 -28.5v-31.5v-39.5t2 -37.5h446
v-99h-436q27 -174 106 -272t206 -98q76 0 132 36.5t109 108.5l101 -90q-68 -90 -154 -140.5t-199 -50.5q-92 0 -171 34t-140 99.5t-103 158.5t-61 214h-131z" />
    <glyph glyph-name="trademark" unicode="&#x2122;" horiz-adv-x="1304" 
d="M6 1274v110h531v-110h-205v-524h-123v524h-203zM635 750v634h153l95 -229l55 -162h8l55 162l93 229h151v-634h-117v280l13 215h-8l-146 -397h-92l-147 397h-9l15 -215v-280h-119z" />
    <glyph glyph-name="uni25FC" unicode="&#x25fc;" horiz-adv-x="993" 
d="M0 0v993h993v-993h-993z" />
    <glyph glyph-name="uniFB01" unicode="&#xfb01;" horiz-adv-x="1138" 
d="M61 858v127l136 10v158q0 154 70.5 242t219.5 88q47 0 89 -9.5t77 -23.5l-37 -129q-55 25 -112 25q-139 0 -139 -193v-158h210v-137h-210v-858h-168v858h-136zM772 1309q0 49 34 78.5t83 29.5t83 -29.5t34 -78.5q0 -47 -34 -78t-83 -31t-83 31t-34 78zM803 0v995h168
v-995h-168z" />
    <glyph glyph-name="uniFB02" unicode="&#xfb02;" horiz-adv-x="1120" 
d="M61 858v127l136 10v158q0 154 70.5 242t219.5 88q47 0 89 -9.5t77 -23.5l-37 -129q-55 25 -112 25q-139 0 -139 -193v-158h210v-137h-210v-858h-168v858h-136zM766 201v1257h168v-1270q0 -41 14.5 -57t32.5 -16h15.5t21.5 4l22 -127q-16 -8 -38.5 -12.5t-57.5 -4.5
q-96 0 -137 57.5t-41 168.5z" />
    </font>
</defs>
</svg>
